<svg xmlns="http://www.w3.org/2000/svg" viewBox="0 0 500 500"><g id="freepik--City--inject-687"><g id="freepik--city--inject-687"><path d="M286.4,72.62V62.43l8.83-5.1,8.83,5,0,10.32L317.29,65,335,75.17v-5.1l4.42-2.54v-5.1l4.41-2.55v-5.1l3.94-2.27c.1-7.87.3-21.37.48-21.37s.37,13.5.47,21.37l3.94,2.27v5.1L357,62.43v5.1l4.42,2.54V95.56l2.18,1.26s2.23-24.2,6.65-31.84c4.41,7.64,6.59,31.87,6.59,31.87l15.47-8.94V72.62l4.42-2.55,8.83,5.1v25.48L410,98.11l17.66,10.19,8.82-5.1,8.83,5.1V98.11l4.52-2.61c.11-7.89.29-18.49.44-18.49s.32,10.15.43,18l3.44-2,8.83,5.1v30.58l8.83-5.1,3.94,2.28c.1-7.94.3-20.82.47-20.82s.38,13.49.48,21.37l8.35,4.82V294.46H273.16V80.27Z" style="fill:#e6e6e6"></path><path d="M490.37,181,477,173.22l-4,2.33c-.12-7.94-.29-18.27-.44-18.27s-.34,10.79-.45,18.78l-4,2.32v15.46l-13.39-7.73V160.33l-8.93-5.15V134.56l-8.41-4.86c-.09-7.06-.32-24.21-.52-24.21s-.43,17.14-.52,24.21l-8.41,4.86V150L410,139.71l-13.39,7.73V116.51l-13.4-7.73-8.93,5.15v20.63l-13.39-7.74L352,132v5.15L343,132V111.36l-8.93-5.16-4.46,2.58V93.31l-8.93-5.15-8.93,5.15.22,21.61-13.39,7.73V107.18L289.68,102l-8.93,5.15V117.5l-4.46-2.58-.23-24.45-8.93-5.16-2.31,1.34c-.1-7.8-.31-22.45-.49-22.45s-.41,15.39-.5,23l-5.63,3.25V112l-8.93-5.16-13.39,7.74v16.93L227,126.32l-3.41,2c-.09-7.52-.31-23.31-.5-23.31s-.42,16.64-.51,23.89l-4.51,2.6v5.16l-4.46,2.58V108.78l-8.93-5.16-11.7,6.76v28.17L181.85,145V124.33l-4-2.28c-.09-7.4-.31-23.6-.51-23.6s-.4,15.38-.5,23l-4-2.28-13.4,7.73v30.93l-13.39-7.73-17.86,10.31V145l-8.41-4.86c-.09-7.06-.32-24.21-.52-24.21s-.43,17.15-.51,24.21L110.41,145v20.62l-8.93,5.16v25.78l-13.39,7.73V188.77l-4-2.32c-.11-8-.29-18.77-.44-18.77s-.33,10.33-.44,18.26l-4-2.32-13.39,7.73V294.46h424.6Z" style="fill:#f0f0f0"></path></g></g><g id="freepik--Water--inject-687"><g id="freepik--water--inject-687"><ellipse cx="250" cy="323.24" rx="244.3" ry="145.03" style="fill:#BB86FC"></ellipse><ellipse cx="250" cy="323.24" rx="244.3" ry="145.03" style="fill:#fff;opacity:0.2"></ellipse><path d="M9.83,331.86c-1.35-.84-3.08-1.64-3.91-2.63a88.38,88.38,0,0,0,2.49,15.54c.9-.71,1.94-1.36,2.8-2.08C15,339.46,14.42,334.74,9.83,331.86Z" style="fill:#fff;opacity:0.2"></path><path d="M489.87,313.93c1.24-.24,2.56-.36,3.86-.52-.16-1.42-.35-2.83-.58-4.25a7.65,7.65,0,0,1-1.47,1,20.88,20.88,0,0,1-8.71,2.27c-3.17.16-6.35-.27-9.53-.35a58.56,58.56,0,0,0-9.94.79c-4.15.66-8.54,1.74-10.57,3.93-2.86,3.09-.35,7.59-4.92,9.89-3.2,1.61-8.24,1.12-11.91-.12s-6.61-3.08-10.38-4.23a37.22,37.22,0,0,0-10-1.34,5.59,5.59,0,0,0-1.31.16c-2.27.86-5.4.9-6.81-.43s-.24-3.46,1.15-4.79c2-1.91,5.54-3.16,9.27-3.76a55.67,55.67,0,0,1,11.49-.35c5.36.28,11.08.88,15.86-.55a19,19,0,0,0,5.36-2.66,23.3,23.3,0,0,0,6.74-6.82c1.52-2.49,2.27-5.15,4.51-7.45,2.7-2.77,7.82-4.86,13.33-4.84s10.94,2.5,11.4,5.66c.37,2.67-2.41,5.7.39,7.86,1.34,1,3.73,1.57,5.36,2.41a94.79,94.79,0,0,0-5.21-16.88l-1.74-.67a43.42,43.42,0,0,1-9.53-.62c-3-.68-5.64-2.2-5.82-4.06-.24-2.72,4.59-4.63,9-5.63.82-.19,1.64-.36,2.47-.52q-1.35-2.38-2.83-4.76l-.09,0A84.57,84.57,0,0,1,468,277.08c-3.22,1.48-4.47,4.25-2.89,6.45a6.16,6.16,0,0,1,.91,1.35c.6,1.89-2.93,3.22-5.5,4.43-3.9,1.83-6.43,4.6-6.84,7.49-.27,1.82.25,3.73-.9,5.42s-5,3-7.49,1.85c-2.88-1.33-.83-4.14-2.53-6-.73-.81-2.14-1.4-2.58-2.29-.62-1.22.79-2.43,2-3.47,2.62-2.21,4.76-4.74,4.85-7.41.14-3.61-3.44-6.89-7.08-9.83a5.18,5.18,0,0,1-1.59-1.71,2.36,2.36,0,0,1,.26-1.89c2.33-4.83,10.31-7.9,17.72-10.52a77.87,77.87,0,0,1,11.53-3.34c-.86-1-1.73-2-2.62-3a69.56,69.56,0,0,0-21.82,6.77,17.63,17.63,0,0,0-4.81,3.33c-2.05,2.22-2.37,5-5.44,6.76-4.18,2.4-11.07,1.75-16.8.92a10.51,10.51,0,0,1-3.48-.91c-2-1.12-1.2-3.12.31-4.5a16.61,16.61,0,0,1,4.54-2.85c1.95-.86,4.2-1.51,6-2.46,3.4-1.81,4.87-4.74,3.69-7.34a4.3,4.3,0,0,0-2.06-2.08c-1.09-.51-2.52-.73-3.7-1.2a4.9,4.9,0,0,1-3.26-4.56c-.14-2.78,1.35-5.82,5.37-7.34,4.36-1.64,10.36-1.06,14.82-2.58a16.29,16.29,0,0,0,4.3-2.32q-3.87-3-8-5.8a5.09,5.09,0,0,1-1.39,1.82c-3.19,2.84-7,1.68-10.81,2.81a27.23,27.23,0,0,1-6.93,1.32c-2,0-5.51-.19-7.06-1.7s-1.13-4.3-2.66-6a19.9,19.9,0,0,0-4.86-3.58c-1.89-1.05-4-2.06-5-3.47l-.18-.29a4.18,4.18,0,0,1,.28-4.2c1.15-2.06,3.23-3.87,5.32-5.68-1.47-.69-2.94-1.37-4.43-2-2.67,1.62-5.64,3.13-7.4,5.1a5.6,5.6,0,0,0-.66,7.22c1.7,2.53,5.32,4.44,8.4,6.48s5.88,4.59,5.37,7.3a6.85,6.85,0,0,1-2,3.2,20.69,20.69,0,0,1-10.74,5.49c-4.63.91-10.19.46-13.7-1.51-1.21-.67-2.14-1.49-3.24-2.22-3.69-2.47-9.36-3.9-15-3.79s-11.13,1.77-14.51,4.38c-2.09,1.59-2.65,3.71-4.63,5.35s-5.07,1.08-7.89,1a4.25,4.25,0,0,1-1.79-.27c-1-.48-.54-1.44.16-2.08,5.27-5,17.76-6.93,20.36-12.54.88-1.91.44-4,1.81-5.81,1.63-2.14,5.43-3.4,8.79-4.73s6.77-3.15,6.84-5.5c.09-2.8-4.55-4.9-5.67-7.61-1.24-3,1.9-5.94,5.56-8.13,1-.62,2.16-1.21,3.32-1.76-1.9-.64-3.82-1.27-5.74-1.88-.51.34-1.06.66-1.6,1q-4.34,2.45-8.67,4.87c-1.16.67-2.39,1.37-2.78,2.28-1,2.25,3.22,4,5.29,6a4,4,0,0,1,.79,5.43,14.39,14.39,0,0,1-5.09,4.1,21.26,21.26,0,0,1-11.46,1.51c-3.36-.68-6.49-2-10-1.87-1.87,0-3.89.49-5.51-.06-2.44-.83-1.61-2.94-2.15-4.55s-2.95-3-3.93-4.64c-1.34-2.3.29-4.88,3.06-6.69s6.53-3,10.2-4.14,7.43-2.35,10.17-4.17c1.82-1.2,3.17-2.66,5-3.85q-3.63-.94-7.32-1.82a11.11,11.11,0,0,1-4.16,3.25c-3,1.51-6.59,2.53-9.8,3.86a30.76,30.76,0,0,0-8.92,5.43c-2,1.81-3.54,3.89-3.47,6,.06,2.69,2.56,5.16,3.29,7.8s-.5,5.74-3.43,8a14,14,0,0,1-10.24,2.59c-5.65-1-7.82-4.82-11.14-7.63a3.37,3.37,0,0,1-.42-.68,11.31,11.31,0,0,1-1.75-7.76c.28-1.85.94-3.94-1.12-5.36a13,13,0,0,1-1.84-1.19c-1.3-1.38,1.11-3,3.67-3.54s5.51-.47,7.78-1.31c3.3-1.22,4-3.86,3.47-6.09-.28-1.09-.79-2.19-.48-3.28.42-1.5,2.35-2.69,4.37-3.66A41.54,41.54,0,0,1,312,183c-2.46-.38-4.93-.73-7.4-1.07a19.74,19.74,0,0,1-3.95,2.39,8.39,8.39,0,0,1-5.69.25,2.78,2.78,0,0,1-1.69-3.6l.12-.4-5.29-.53a3,3,0,0,1,.16.64c.39,2.68-2.39,5.72.4,7.88,1.93,1.47,6,2,6.9,3.74.59,1.23-.71,2.5-2.31,3.37a20.85,20.85,0,0,1-8.71,2.27c-3.18.16-6.36-.27-9.54-.34a58.56,58.56,0,0,0-9.94.79c-4.15.65-8.53,1.73-10.57,3.93-2.86,3.08-.35,7.59-4.92,9.88-3.21,1.62-8.24,1.13-11.9-.1s-6.62-3.1-10.38-4.24a37.39,37.39,0,0,0-10-1.34,5,5,0,0,0-1.31.16c-2.27.85-5.41.89-6.82-.44s-.24-3.46,1.16-4.79c2-1.91,5.53-3.16,9.26-3.76a56.45,56.45,0,0,1,11.5-.35c5.36.29,11.08.89,15.86-.54a18.85,18.85,0,0,0,5.35-2.66,23.3,23.3,0,0,0,6.74-6.82c1.51-2.48,2.28-5.16,4.51-7.45a12.28,12.28,0,0,1,1.57-1.32c-2.63-.09-5.26-.17-7.9-.21a7.9,7.9,0,0,0-2,4c-.25,1.81.27,3.73-.89,5.43s-5,3-7.49,1.84c-2.87-1.33-.83-4.13-2.52-6-.73-.82-2.14-1.42-2.59-2.29-.51-1,.38-2,1.39-2.93-3.3.05-6.59.15-9.88.28a5.87,5.87,0,0,0,2,4.88c1,1,2.45,1.9,3,3,1.15,2.18-1.33,4.57-4.72,5.75s-7.49,1.43-11.42,1.67-8,.51-11.4,1.73a21.55,21.55,0,0,0-7.43,4.83c-1.47,1.33-3,2.74-3.2,4.3s.71,3,.31,4.45-2.15,2.8-4.13,3.83c-3.07,1.58-4.26,1.82-8.21,2.76,0,0-1.22.23-1.59.35-.71.23-2.25.52-3.56.79-6.32,1.31-10.69,2.58-17.3,1.87-3.57-.38-7.22-1.38-8.9-3.26a4.2,4.2,0,0,1-1-3.9c1.19-5.64,9.27-9.8,16.82-13.42q10-4.8,19.93-9.57c4.72-2.27,9.7-4.8,12.21-7.93-2.24.25-4.47.51-6.69.8a5.46,5.46,0,0,1-1.57.84,28.79,28.79,0,0,1-11.69,1.33l-.8-.1c-3.05.51-6.1,1-9.12,1.62,2.67.46,5.63.65,6.56,2.07.64,1-.14,2.05-1.07,2.94-5.26,5-15.27,7.66-22.88,11.56-2.66,1.37-5.13,3-5.94,5-.49,1.21-.35,2.49-.79,3.7a4.51,4.51,0,0,1-3.77,2.8c-3,.45-5.61-1.26-8-2.41-4.66-2.23-11.11-2.76-16.26-4.59a19.59,19.59,0,0,1-7.11-4.19c-2.07.81-4.11,1.65-6.15,2.5a33.54,33.54,0,0,0,6.62,3c2.58.85,5.77,1.83,5.87,3.53s-3.18,2.84-5.51,4c-4.64,2.28-6.41,6.3-4.24,9.58,1,1.44,2.61,2.75,2.88,4.29s-.93,3.08-2.67,4.26c-1.43,1-3,1.37-4.49,2.22a36.5,36.5,0,0,1-4.75,2.41,42.85,42.85,0,0,1-10.33,2.7c-6.5.91-13.09.39-19.57.73a25.4,25.4,0,0,1-13.44-2.82,11.29,11.29,0,0,1-3.81-3.4q-3.94,3-7.57,6.19a6.53,6.53,0,0,1-.43,3.89c-1.52,3.5-5.44,6.47-9.35,9.29-3.13,2.25-6.39,4.56-7.87,7.33s-.75,6.15,3.12,8a23.28,23.28,0,0,0,8.42,1.68,63.29,63.29,0,0,0,10.67-.3c3.72-.41,7.59-1.14,11.18-.45,4.26.83,6.8,3.57,6.69,6.17s-2.39,5-5.23,7a24.13,24.13,0,0,1-6.37,3.26,28.83,28.83,0,0,1-18-.34c-4.5-1.71-7.4-4.54-11.86-6.27a42.34,42.34,0,0,0-11.75-2.19c-.5.91-1,1.83-1.44,2.74,7.06.47,14,2.34,17.91,5.73,4.31,3.75,3.71,9.44-2.49,12.17a26.15,26.15,0,0,1-8.82,1.81A39.15,39.15,0,0,1,9.1,299.08c-.5,1.76-.93,3.53-1.32,5.31a7,7,0,0,0,.84,1c3.39,3.25,12.56,3.78,14.43,7.43,1.43,2.84-2.79,5.64-7.38,7-3.19.91-6.72,1.45-9.94,2.29,0,1.67,0,3.34.07,5a6,6,0,0,1,3-1.88c1.88-.62,4.4-1.26,6.24-1.94,2.58-.94,6.22-3.21,8.92-4.1a28.93,28.93,0,0,1,5.82-1,22.39,22.39,0,0,1,6.83,1,10.4,10.4,0,0,1,4,1.74c1.91,1.65.69,3.86-.5,5.74s-2.26,4.12-.14,5.69c1.48,1.09,4.07,1.45,6.48,1.49s4.83-.16,7.18.1c5.46.57,9.48,3.68,9.92,6.86s-2.12,6.35-5.91,8.7-8.7,4-13.68,5.4c-4.64,1.31-10.16,2.48-14.81,1.19s-6.92-4.56-11.78-5.37c-2.35-.39-5.19-.2-7.43-.56.44,1.4.91,2.8,1.42,4.19a21.89,21.89,0,0,1,3.73.88c3.66,1.23,6.62,3.09,10.38,4.23a37.33,37.33,0,0,0,10,1.34,5,5,0,0,0,1.31-.16c2.27-.85,5.41-.89,6.82.44s.24,3.45-1.16,4.78c-2,1.92-5.53,3.16-9.27,3.76a55.57,55.57,0,0,1-11.48.36l-3.11-.18c.89,1.55,1.81,3.1,2.79,4.65a59.74,59.74,0,0,1,9.24-1.07c3.93-.24,8-.51,11.4-1.72a21.92,21.92,0,0,0,7.44-4.85c1.46-1.33,3-2.72,3.18-4.3s-.7-3-.31-4.43,2.16-2.81,4.14-3.84c3.07-1.58,4.26-1.82,8.21-2.75,0,0,1.22-.23,1.58-.36.71-.23,2.25-.51,3.57-.79,6.31-1.31,10.69-2.57,17.29-1.87,3.58.38,7.23,1.38,8.92,3.25A4.21,4.21,0,0,1,97,355.6c-1.17,5.63-9.26,9.8-16.81,13.43l-19.93,9.56c-6.1,2.93-12.63,6.28-13.72,10.82-.84,3.51,1.81,7.19,0,10.55a6.82,6.82,0,0,1-1.71,2q1.78,1.63,3.66,3.26a9.5,9.5,0,0,0,1.74-1.95c1.34-2.16,1.34-4.85,1.26-7.31-.09-2.69-.2-5.56,1.17-7.87a7.59,7.59,0,0,1,3.69-3.18A28.93,28.93,0,0,1,68,383.55a16.4,16.4,0,0,1,3.56.67c3.49,1.26,3.17,4.33,1.2,6.42s-5.15,3.8-6.4,6.06-.44,4.48,1.26,6.47a26.28,26.28,0,0,0,7.13,5.22,8.73,8.73,0,0,1,2.86,2.07,2.81,2.81,0,0,1,.15,2.72c-1,2.74-3.94,5.09-7.07,7.23l-1,.65c1.35.87,2.71,1.74,4.1,2.6a26.74,26.74,0,0,0,7.85-7.42,24,24,0,0,1,2.61-3.84,13.53,13.53,0,0,1,4.37-2.7c4.19-1.83,8.72-3.3,13.28-2.95a1.56,1.56,0,0,1,1,.37,1.45,1.45,0,0,1,.31.85,10.55,10.55,0,0,1-3.23,8.89c-2.18,2-5.11,3-7.94,4a93.76,93.76,0,0,0-13.75,5.57c1.31.77,2.62,1.53,3.95,2.27a31.56,31.56,0,0,1,4.53-1.85c5.16-1.69,11-2.85,15-5.41,4.55-2.93,5.61-7.08,7.11-10.92s4.21-8,10.33-9.73c2-.58,4.83-.74,6.27.27,1.2.82.88,2.08,0,3s-2.14,1.77-2.89,2.76a1.36,1.36,0,0,0-.32,1.41c.42.88,2.29,1.28,3.89,1.26a45.77,45.77,0,0,1,4.81-.17c3.73.29,7.67-.63,10.48.83a3.8,3.8,0,0,1,2.31,4.26,11.24,11.24,0,0,1-2.66,4.35c-2.55,3.07-5.08,6.13-7.64,9.2-1.83,2.21-4.24,4.68-8.42,5.1-4,.4-8.06-1.27-11.92-.6a8.23,8.23,0,0,0-5.71,3.83,30.59,30.59,0,0,1-2.3,3.74c1.17.52,2.36,1,3.54,1.52,1.21-1.38,1.9-2.95,3.44-4.23,2.08-1.74,5.07-1.08,7.89-1a4.32,4.32,0,0,1,1.8.27c1,.49.53,1.44-.17,2.09-2,1.91-5.16,3.38-8.38,4.79,1.5.6,3,1.2,4.51,1.77,2-.87,4-1.71,5.87-2.61,8.33-4,14.41-9.59,17.1-15.65A34.16,34.16,0,0,1,143,422a12.94,12.94,0,0,1,4.07-3.9,16.84,16.84,0,0,1,8.38-2.53c3.24-.08,6.67,1,7.57,2.83,1.68,3.3-5.14,6.17-5.18,9.6,0,2.54,3.7,5.07,1.91,7.4-1.88,2.48-8.6,2.61-10.81,5-1.42,1.54-.42,3.46,1.23,4.93s3.93,2.67,5.36,4.2,3.07,4.24,2.1,5.54a3.11,3.11,0,0,1-2.42.7c-4.4-.33-6.77-4.08-11.18-3.9a11.56,11.56,0,0,0-3.84.9q11.7,3.51,23.85,6.21l-.12-.76c-.45-2.76-.94-5.61-3.28-8-1-1-2.32-2-3.28-3-1.43-1.59-2.46-2.57-2-4.33a7.81,7.81,0,0,1,.48-.82c1.73-2,5.59-3.31,9.46-3.58s8,.83,9.8,2.83a6.62,6.62,0,0,1,1.41,3.28c.39,1.81.79,3.61,1.17,5.4.52,2.42,1.08,4.88,2.92,7.07a13.83,13.83,0,0,0,9.45,4.38c2.39.18,5.44,0,6.65,1.2.65.66.41,1.38-.19,2.08,8.09,1.08,16.26,1.91,24.46,2.49a14.49,14.49,0,0,0-5.14-2c-3.47-.59-8.05.12-10.14-1.6-1.22-1-.81-2.39.2-3.47s2.6-1.94,3.79-2.94c3.8-3.23,3.2-7.95-1.39-10.83-1.79-1.11-4.23-2.14-4.38-3.66-.12-1.25,1.48-2.37,3.38-3s4.41-1.25,6.24-1.94c2.59-.93,6.23-3.21,8.93-4.09a28.88,28.88,0,0,1,5.82-1,23.07,23.07,0,0,1,6.83,1,10.57,10.57,0,0,1,3.95,1.73c1.92,1.66.7,3.87-.5,5.74s-2.25,4.13-.13,5.7c1.48,1.09,4.07,1.46,6.47,1.5s4.83-.17,7.2.09c5.45.57,9.46,3.68,9.91,6.87s-2.13,6.35-5.92,8.69a44.66,44.66,0,0,1-9.76,4.22c3.22,0,6.45,0,9.67,0a30.2,30.2,0,0,1,7.12-2.22s1.23-.23,1.6-.35c.7-.23,2.24-.52,3.56-.79,6.31-1.31,10.69-2.58,17.29-1.87,3.34.36,6.72,1.27,8.52,2.91,3.08-.34,6.16-.7,9.22-1.11-1.22-.41-2.4-.86-3.53-1.35-3.35-1.45-6.53-3.27-10.65-3.76-5.1-.62-10.2.94-15.39,1.08-1.39.05-3-.06-3.79-.7a2,2,0,0,1-.72-1.46c-.33-2.14-.65-4.25-1-6.37-.2-1.22-.37-2.52.64-3.62s2.81-1.7,4.54-2.35c9.76-3.69,17.78-8.9,23-14.92,1.24-1.44,2.39-3,4.62-3.95s5.92-1,7.38.35c1.12,1.05.6,2.6,1.29,3.82.9,1.59,2.37,1.44,3.9,1.11,4.08-.9,8.06-2.21,12.07-3.38,4.37-1.26,9-2.71,13.53-2.32,4,.34,8.18,1,10.77,2.78,3.1,2.11,3,5.32,1,7.83s-5.63,4.44-9.32,6.2-7.58,3.42-10.46,5.63c-2.43,1.86-4,4.45-2,6.46.92.94,2.48,1.59,3.54,2.46a4.22,4.22,0,0,1,1,1.19c2-.43,3.91-.86,5.86-1.32a5.44,5.44,0,0,0-.56-1.1c-1-1.43-2.61-2.75-2.88-4.28s.93-3.08,2.68-4.26c1.43-1,3-1.38,4.48-2.23a38.62,38.62,0,0,1,4.76-2.41,43.2,43.2,0,0,1,10.33-2.7c6.49-.91,13.08-.38,19.56-.73a27,27,0,0,1,11.49,1.87q7.17-3,14-6.27c1.68-3.26,5.36-6.08,9.06-8.75,3.14-2.25,6.4-4.56,7.88-7.33s.74-6.15-3.12-8a23.13,23.13,0,0,0-8.43-1.69,64.27,64.27,0,0,0-10.66.3c-3.72.41-7.59,1.14-11.19.45-4.26-.83-6.8-3.57-6.69-6.17s2.39-5,5.24-7a24.06,24.06,0,0,1,6.36-3.26,28.86,28.86,0,0,1,18,.35c4.49,1.7,7.4,4.54,11.86,6.26,7.81,3,18.3,1.93,27.25,3.6a8,8,0,0,1,2.19.65q1.72-1.47,3.37-3c-4.64-2.18-11.4-1.58-17.4-1.72-7.79-.2-15.82-2.1-20.14-5.84s-3.71-9.44,2.49-12.17a26,26,0,0,1,8.82-1.8,38.18,38.18,0,0,1,14.93,2.11c2.77,1,5.24,2.42,8.4,3A21.75,21.75,0,0,0,466,383.48c3.66-2.2,5.78-5.08,7.84-7.89a5.49,5.49,0,0,1,4.35-2.55,5,5,0,0,1,1.24.13,106.87,106.87,0,0,0,8-15.79,21.24,21.24,0,0,1-3.1.45c-3.86.26-8.05-.82-9.81-2.82a6.73,6.73,0,0,1-1.4-3.28c-.39-1.81-.79-3.62-1.18-5.41-.52-2.41-1.07-4.88-2.92-7.07a13.85,13.85,0,0,0-9.44-4.38c-2.41-.17-5.44,0-6.65-1.19s.64-2.64,2.1-3.77a13.4,13.4,0,0,0,4.79-6.22c.52-1.51.62-3.12,1.67-4.54,1.59-2.16,5.41-3.72,9.49-3.85s8.17,1.14,10.19,3.18c1.56,1.56,1.87,3.42,2.16,5.21.79,4.81,1.56,9.59,2.35,14.4.45,2.75.94,5.6,3.29,8,.54.56,1.18,1.09,1.8,1.62.42-1.45.79-2.91,1.14-4.37a2.28,2.28,0,0,1,.07-2.13,1.54,1.54,0,0,1,.49-.38q.63-3.14,1-6.28c-.72-.73-1.44-1.45-2.22-2.11a2.88,2.88,0,0,1-.43-.68,11.37,11.37,0,0,1-1.75-7.76c.29-1.84.94-3.94-1.12-5.36a10.93,10.93,0,0,1-1.83-1.2C484.88,316.09,487.3,314.45,489.87,313.93Zm-82.64,13c4.64-1.31,10.17-2.48,14.82-1.19s6.92,4.57,11.78,5.37c3.47.58,8.05-.12,10.13,1.59,1.22,1,.81,2.4-.2,3.47s-2.59,1.94-3.79,2.95c-3.79,3.22-3.2,7.94,1.39,10.83,1.79,1.1,4.23,2.14,4.38,3.66.13,1.25-1.48,2.37-3.38,3s-4.41,1.26-6.24,1.94c-2.59.94-6.22,3.22-8.93,4.1a29.5,29.5,0,0,1-5.82,1,23,23,0,0,1-6.82-1,10.45,10.45,0,0,1-4-1.74c-1.91-1.65-.69-3.86.51-5.74s2.25-4.13.13-5.7c-1.47-1.09-4.07-1.45-6.47-1.49s-4.83.16-7.19-.1c-5.46-.56-9.47-3.67-9.92-6.86s2.13-6.35,5.91-8.7S402.25,328.34,407.23,326.92Zm14.4-51.05c5.15.07,10.54,1.25,13.47,3.73a8.48,8.48,0,0,1,2.24,2.95c.57,1.21.87,2.54,0,3.7a14.73,14.73,0,0,1-2.76,2.2c-3.55,2.69-3.93,6.66-.9,9.55,1,1,2.46,1.89,3.05,3,1.15,2.18-1.32,4.57-4.72,5.75s-7.49,1.42-11.43,1.67-8,.52-11.39,1.72a22,22,0,0,0-7.44,4.85c-1.46,1.33-3,2.72-3.19,4.3s.71,3,.32,4.43-2.16,2.81-4.14,3.85c-3.07,1.57-4.26,1.81-8.21,2.75,0,0-1.23.23-1.59.35-.7.23-2.25.52-3.57.79-6.31,1.31-10.69,2.58-17.28,1.87-3.58-.38-7.24-1.38-8.92-3.25a4.21,4.21,0,0,1-.94-3.91c1.17-5.63,9.26-9.79,16.8-13.42L391,303.2c6.09-2.93,12.63-6.28,13.71-10.81.85-3.52-1.81-7.2,0-10.55C406.86,277.93,414.53,275.77,421.63,275.87ZM142.55,348c-.87-2.71-4.42-4.35-4.26-7.19.11-1.81,1.74-3.13,3.38-3.89,4-1.84,8.77-1.95,12-4.86a35.92,35.92,0,0,1,3.12-3,10.45,10.45,0,0,1,4.14-1.49,63.4,63.4,0,0,1,28,.68c3.21.81,6.78,2.26,7.84,5.4a6.86,6.86,0,0,1-1,5.8,13.48,13.48,0,0,1-4.5,4c-6.21,3.69-14.23,5-18.49,10.87-1.54,2.12-2.44,4.67-4.12,6.68-5.66,6.76-18.84,7.46-24.72.73a8.79,8.79,0,0,1-2.46-5.37C141.43,353.52,143.42,350.72,142.55,348Zm48.51-74a5.68,5.68,0,0,1,1.16,1.46c.36,1-.62,2.07-2,2.76a38.77,38.77,0,0,1-4.56,1.65c-5.56,2-9.4,5.45-10.06,9.17l-.23,1.11a14.66,14.66,0,0,1-6.49,6.48,20.77,20.77,0,0,1-12.14,2c-5.74-.89-9.3-4.48-9.4-7.91a37.29,37.29,0,0,1,.69-4.77,10.08,10.08,0,0,0-.55-4.59,4,4,0,0,0-2.24-2.52c-2-.83-4.82-.4-7,.28-2.42.75-4.89,2.52-7.37,2.87-2.84.4-5.8-.28-8.66-.22a18.06,18.06,0,0,1-7.51-1.38c-3.95-1.82-7.33-7.39-5.33-11.69,1.62-3.49,6.2-4.63,9.55-5.68a67,67,0,0,1,18.49-2.91,35.33,35.33,0,0,0,6-.38,31.9,31.9,0,0,1,4.76-1c2.79-.14,5.08,1.17,7,2.35l6.53,4.16c4.13,2.6,9.38,5.45,15.41,4.85a17.75,17.75,0,0,0,8.27-3.18,9.3,9.3,0,0,1,2.65-1.44,4.6,4.6,0,0,1,3.4.15c1.34.83.13,2.14-.66,3.18A4,4,0,0,0,191.06,274.05ZM370.2,298.89c2.87,1.41,8.34.91,9.67,2.94.63,1-.14,2.05-1.08,2.95-5.26,5-15.26,7.65-22.87,11.56-2.66,1.37-5.13,3-5.95,5-.48,1.2-.35,2.48-.79,3.7a4.5,4.5,0,0,1-3.76,2.79c-3.06.45-5.6-1.25-8-2.41-4.68-2.23-11.12-2.75-16.28-4.58-4.41-1.57-10.71-5.17-9.14-10.7.9-3.17,2.63-4.44,5.87-4.67,2.85-.2,5.58.73,8.44.79a16.46,16.46,0,0,0,8.35-2.26c10.72-6.29,6.94-17.81,17.95-23.93a33.48,33.48,0,0,1,7.87-2.9c3.66-.94,8.23-1.51,11.48-.14,2.26,1,3.27,2.68,3.23,4.3s-1,3.19-1.86,4.74c-1.27,2.16-2.55,4.31-3.83,6.47S367.22,297.42,370.2,298.89Zm-61.57,34.87c.88,2.71,4.43,4.35,4.26,7.19-.1,1.81-1.74,3.13-3.37,3.9-3.95,1.83-8.78,1.94-12,4.85a34.49,34.49,0,0,1-3.12,3.05,10.74,10.74,0,0,1-4.14,1.5,63.74,63.74,0,0,1-28-.68c-3.21-.82-6.77-2.26-7.83-5.41a6.83,6.83,0,0,1,1-5.8,13.52,13.52,0,0,1,4.51-4c6.21-3.69,14.22-5,18.48-10.87,1.55-2.12,2.44-4.67,4.12-6.67,5.67-6.77,18.85-7.47,24.73-.73a8.76,8.76,0,0,1,2.46,5.37C309.76,328.27,307.76,331.07,308.63,333.76Zm26.51-38.62a13.23,13.23,0,0,1-6.56,4,42.88,42.88,0,0,1-8.31,1.71c-2.3.27-4.62.42-6.9.87-6.07,1.19-11.3,4.64-17,6.88-5.09,2-10.78,1.71-16.21,1.07-7.8-.92-19.86-1.58-26.09-7a2.21,2.21,0,0,1-.73-1,2,2,0,0,1,.27-1.38,8,8,0,0,1,5.19-3.67,36,36,0,0,1,6.49-.69c5.12-.37,11.49-1.26,15.45-4.68,3.29-2.84,5.19-7.43,10.05-7.75,4.54-.29,8.5.49,12.95-1.23,3.85-1.49,7.29-3.84,11.46-4.36a4,4,0,0,1,1.7.06c1.81.59,2.1,3,3.17,4.55,2.39,3.51,9,3.51,12.71,3.2a6.57,6.57,0,0,1,1.88,0,3.72,3.72,0,0,1,2.62,3.58A10.14,10.14,0,0,1,335.14,295.14ZM299.27,277a32.41,32.41,0,0,1-10.81.75c-2.74-.27-5.72-.85-8.14-.07a4.17,4.17,0,0,0-3.09,4.36c0,1.65.47,3.39-.79,4.87-1.71,2-5.88,2.78-9.67,3.13-2.52.23-5.28.33-7.42-.46a30.07,30.07,0,0,1-3-1.52c-4.65-2.26-11.5-1.64-17.57-1.79-7.78-.19-15.82-2.08-20.13-5.84s-3.72-9.44,2.48-12.16a26,26,0,0,1,8.82-1.81,38.37,38.37,0,0,1,14.93,2.12c2.78,1,5.25,2.41,8.39,3a21.8,21.8,0,0,0,14.31-2.65c3.66-2.2,5.78-5.07,7.84-7.88a5.45,5.45,0,0,1,4.34-2.55,4.3,4.3,0,0,1,3.87,1.94,11.19,11.19,0,0,1,.61,3.17c.46,2.23,2.63,4.33,5.82,5.62l.77.16a27.85,27.85,0,0,1,8.92-.38c2.91.46,5.53,1.9,5.63,3.64C305.49,274.64,302.43,276.2,299.27,277Zm-75.9,9.72c7.82,3,18.3,1.93,27.26,3.59a5.06,5.06,0,0,1,2.81,1.14c.75.93-.6,2-2.17,2.49s-3.42.63-4.94,1.15c-2.73,1-3.81,3-3.34,4.86s2.22,3.44,4.07,4.95a31.84,31.84,0,0,0,17.82,7.49l-.79-.13c4.19,0,10.06,2,10.32,6.95.2,3.79-1,7.82-4.44,9.81a42.7,42.7,0,0,1-6.67,2.6,27.67,27.67,0,0,0-11.39,8.14,24.25,24.25,0,0,1-8.13,6.38,11.33,11.33,0,0,1-7.68.95,5.53,5.53,0,0,1-3.13-2c-1.23-1.73-.9-4.18.14-6a6.34,6.34,0,0,0,1.14-2.66c.05-1.43-1.18-2.57-2.42-3.28-7.58-4.36-17.45-.54-24.76-5.53a9.49,9.49,0,0,1-2.09-1.75c-1-1.26-.81-2.38-.21-3.75,1.52-3.51,5.44-6.48,9.35-9.3,3.13-2.26,6.39-4.56,7.86-7.33s.75-6.14-3.12-8a23,23,0,0,0-8.42-1.68,65.49,65.49,0,0,0-10.67.29c-3.72.41-7.58,1.14-11.17.45-4.26-.83-6.8-3.57-6.69-6.15s2.39-5,5.24-7a23.91,23.91,0,0,1,6.36-3.26,28.86,28.86,0,0,1,18,.34C216,282.15,218.9,285,223.37,286.71Zm-68.14,16.61,1.84.13c3.05.21,6.18.9,9.12.05a24.58,24.58,0,0,0,3.8-1.66c5.37-2.61,9.4-1.87,15.16-1.25,8.25.85,16.6-1.86,24.81-.67,2.19.33,4.64,1.2,5.35,3.29.61,1.76-.36,3.74-1.8,4.93a16,16,0,0,1-5,2.35,21,21,0,0,0-6.53,3.12c-1.85,1.54-2.23,3.71-3.48,5.71a6.2,6.2,0,0,1-6.32,3,50.49,50.49,0,0,0-8.5-.94c-7.68-.11-15.37-.21-23-.34a2.72,2.72,0,0,1-1.71-.42c-.66-.52-.66-1.5-.71-2.35a11.05,11.05,0,0,0-9.41-10c-1.71-.19-4-.43-4.21-2.13C144.16,303,151.46,303.1,155.23,303.32Zm26,49.47a41.4,41.4,0,0,1,6.67-2.61,27.5,27.5,0,0,0,10.54-7.09c2.94-3.24,5.38-5.87,9.7-7.33a30.69,30.69,0,0,1,12.25-1.2,13.22,13.22,0,0,1,4.82,1.08,5.53,5.53,0,0,1,3.13,3.65c.45,2.22-.9,4.6-.13,6.73a5.8,5.8,0,0,0,2.15,2.54c3.69,2.69,8.38,3.47,12.71,5a7.41,7.41,0,0,1,2.49,1.26c2.12,1.81.67,5.78-.79,7.59a22.59,22.59,0,0,1-7.94,6.17c-3.57,1.77-6.71,3.91-10.63,4.95-3.7,1-8.33-.42-12-1.11a42.46,42.46,0,0,0-8.37-1.14c-6.7.13-13.47-.94-20.12-1.76-3.84-.47-8.65-2.37-8.88-6.88C176.58,358.8,177.79,354.77,181.22,352.79Zm23.31,32.65c1-1.66.43-3.75.51-5.67a1.82,1.82,0,0,1,.73-1.62,1.84,1.84,0,0,1,.77-.17,32.65,32.65,0,0,1,7,.75c1.92.26,3.69,1,5.62,1.33a18.59,18.59,0,0,0,5.42-.1,12.31,12.31,0,0,1,3.42-.17,4.58,4.58,0,0,1,.79.2c2.31.79,2.14,3.7,4.24,4.82,2.27,1.21,5.25,1.06,7.74,1.2a66.51,66.51,0,0,0,10.66-.3c3.72-.41,7.59-1.14,11.18-.45,4.26.83,6.79,3.57,6.69,6.16s-2.39,5-5.24,7a24,24,0,0,1-6.36,3.25,28.86,28.86,0,0,1-18-.34c-4.49-1.71-7.39-4.55-11.86-6.27-7.81-3-18.3-1.92-27.26-3.59a5.06,5.06,0,0,1-2.8-1.13c-1.18-1.48,2-2.4,2.83-2.56A5.65,5.65,0,0,0,204.53,385.44ZM266,381.2c-8.25-.85-16.6,1.86-24.81.67-2.18-.33-4.64-1.19-5.34-3.29-.62-1.76.36-3.74,1.79-4.92a15.89,15.89,0,0,1,5-2.36c3.42-1.19,6.68-2.72,9.11-5.48,2.05-2.34,3.76-4.91,7.16-5.23a24,24,0,0,1,6.46.71,38.18,38.18,0,0,0,11.64.18c2.78-.39,5.53-1.09,8.35-1.06a10.6,10.6,0,0,1,6.09,1.77c1.78,1.32,1.51,2.89,2.34,4.78a11,11,0,0,0,8.56,6.53c1.71.19,4,.44,4.21,2.13a2.39,2.39,0,0,1-1.61,2.28,17.76,17.76,0,0,1-7.79.93c-1.66-.15-3.33-.31-5-.61-4.44-.84-7.85-1.58-12.05.54-1.82.91-3.48,2.14-5.43,2.69C272,382.25,269,381.51,266,381.2Zm33.68-14.6c-3.1-2.12-3-5.32-1-7.84s5.63-4.43,9.32-6.2,7.59-3.41,10.46-5.63c2.43-1.85,4-4.45,2-6.45-.92-.94-2.48-1.6-3.54-2.47-3.29-2.71-.52-6.82,4.49-8.44s11.27-1.27,16.73-.22a56.68,56.68,0,0,1,11.74,3.56c3.35,1.45,6.54,3.27,10.65,3.75,5.1.62,10.2-.94,15.4-1.08a6.51,6.51,0,0,1,3.78.7,2.08,2.08,0,0,1,.73,1.47c.32,2.13.65,4.25,1,6.36.21,1.22.37,2.53-.63,3.63s-2.81,1.69-4.53,2.34c-9.77,3.69-17.79,8.9-23,14.93a12.35,12.35,0,0,1-4.62,3.94c-2.22,1-5.91,1-7.38-.35-1.12-1-.61-2.6-1.29-3.82-.9-1.59-2.36-1.44-3.89-1.11-4.09.91-8.07,2.21-12.09,3.38-4.36,1.27-8.95,2.72-13.51,2.33C306.49,369,302.29,368.36,299.71,366.6ZM419.54,258.84c-1.74,5.84-11.44,4.61-13.1,10.82a18.71,18.71,0,0,1-1.19,4.2c-1,1.88-3.09,2.89-4.22,4.69-1.33,2.16-1.33,4.85-1.25,7.31.08,2.69.2,5.56-1.18,7.87a7.52,7.52,0,0,1-3.68,3.18,29,29,0,0,1-11.69,1.33,16.93,16.93,0,0,1-3.55-.66c-3.49-1.27-3.18-4.34-1.21-6.42s5.16-3.81,6.41-6.07.44-4.48-1.27-6.47a26.33,26.33,0,0,0-7.13-5.22,8.67,8.67,0,0,1-2.85-2.06,2.81,2.81,0,0,1-.16-2.72c1-2.74,3.94-5.1,7.07-7.24a58.67,58.67,0,0,1,15.78-7.67,34.45,34.45,0,0,1,14.91-1.47C416.22,253,420.42,255.91,419.54,258.84Zm-34.43-11.27c2.38-.69,4.87-.88,7.28-1.43,5-1.15,9.16-3.84,13.58-6.28,2.34-1.3,7.7-2.45,7.81,1.76.05,2.06-1.6,4.85-3.66,5.26-3.67.73-7.36,1.24-11,2.06a65.78,65.78,0,0,0-20.38,8.35c-3.52,2.2-6.89,4.79-9.15,8.26a25.43,25.43,0,0,1-2.61,3.84,13.64,13.64,0,0,1-4.37,2.7c-4.2,1.83-8.72,3.3-13.29,3a1.54,1.54,0,0,1-1-.37,1.46,1.46,0,0,1-.3-.85,10.57,10.57,0,0,1,3.22-8.89c2.19-2,5.11-3,7.94-4a89.56,89.56,0,0,0,15-6.23C378.12,252.59,380.5,248.94,385.11,247.57Zm-47.06,1.76a8.22,8.22,0,0,0,5.72-3.83c1-1.64,1.64-3.43,3.41-4.84,2.7-2.13,7.78-3,12.28-2.5a23.9,23.9,0,0,1,11.25,4.25c1.88,1.35,3.4,3,3.57,4.68.3,3.42-4.71,6.21-9.86,7.9s-11.05,2.85-15,5.4c-4.55,2.93-5.61,7.08-7.11,10.92s-4.2,8-10.33,9.73c-1.69.48-4.9,1.15-5.91-.84a5.19,5.19,0,0,1-.41-2.35,6.55,6.55,0,0,0-.3-2.38,3.87,3.87,0,0,0-2.16-2.06,7.92,7.92,0,0,0-3-.52c-2.18,0-4.35.38-6.52.24-2.93-.19-7-2.16-6.25-5.74a11.2,11.2,0,0,1,2.66-4.36l7.63-9.2c1.83-2.21,4.25-4.68,8.43-5.1C330.11,248.33,334.2,250,338.05,249.33ZM293.6,226.69A3.06,3.06,0,0,1,296,226c4.4.33,6.78,4.08,11.18,3.91a12.86,12.86,0,0,0,4.64-1.24c4.62-2,8.65-4.5,13.86-5.9s12.3-1.36,15.82,1.27,2,6.35-1.4,8.91-8.28,4.23-12.54,6.28c-8.34,4-14.41,9.58-17.11,15.64a34.71,34.71,0,0,1-2.23,4.92,13.14,13.14,0,0,1-4.07,3.89,16.92,16.92,0,0,1-8.39,2.54c-3.24.08-6.66-1.05-7.57-2.84-1.67-3.3,5.14-6.17,5.18-9.6.05-2.54-3.69-5.07-1.91-7.4,1.89-2.48,8.61-2.6,10.82-5,1.41-1.54.41-3.46-1.24-4.93s-3.92-2.67-5.35-4.2S292.62,228,293.6,226.69Zm-36.94-11.34a13.3,13.3,0,0,0,4.78-6.21c.52-1.52.63-3.12,1.67-4.55,1.59-2.15,5.42-3.71,9.48-3.85s8.19,1.14,10.21,3.19c1.54,1.56,1.86,3.42,2.16,5.21.79,4.8,1.56,9.59,2.35,14.39.44,2.76.93,5.61,3.27,8,1,1,2.33,2,3.28,3,1.44,1.59,2.46,2.57,2,4.33a6.32,6.32,0,0,1-.48.82c-1.72,2-5.59,3.32-9.45,3.58s-8.05-.83-9.81-2.83a6.56,6.56,0,0,1-1.4-3.28c-.4-1.81-.79-3.6-1.18-5.4-.51-2.42-1.07-4.88-2.92-7.06a13.77,13.77,0,0,0-9.44-4.39c-2.4-.18-5.45,0-6.65-1.2S255.19,216.48,256.66,215.35Zm-8.92,13.37c1.34-2.57,5.78-4.1,9.86-5.38a6,6,0,0,1,2.12-.37,4.48,4.48,0,0,1,1.54.39,9.79,9.79,0,0,1,5.6,5.67c.8,2.19.89,4.44,1.63,6.62,1.34,3.93,4.84,7.61,9.88,10.38a29,29,0,0,1,4.87,1.36c2.74,1.32,2.26,3.92.24,5.62s-5.15,2.82-7.71,4.24c-3,1.69-5.2,3.77-7.72,5.7a23.17,23.17,0,0,1-9.5,4.58c-3.93.81-8.92.33-11.31-1.65-1.45-1.2-1.77-2.76-3.08-4-3.4-3.25-12.57-3.78-14.42-7.43-1.44-2.84,2.78-5.65,7.36-7s9.88-1.83,14-3.62c1.83-.82,3.42-2,3.66-3.26.39-2.08-2.48-3.81-4.51-5.54C248,233.2,246.62,230.86,247.74,228.72Zm-52.59-10.95c3.79-2.35,8.7-4,13.67-5.4,4.65-1.32,10.17-2.48,14.82-1.19s6.92,4.57,11.78,5.36c3.47.59,8-.12,10.14,1.6,1.21,1,.81,2.4-.21,3.47s-2.59,1.94-3.78,2.94c-3.8,3.24-3.21,8,1.38,10.83,1.79,1.12,4.23,2.14,4.38,3.66.12,1.25-1.48,2.38-3.37,3s-4.41,1.26-6.24,1.94c-2.6.93-6.24,3.22-8.94,4.1a28.78,28.78,0,0,1-5.82,1,22.41,22.41,0,0,1-6.82-1,10.62,10.62,0,0,1-4-1.73c-1.91-1.66-.7-3.87.5-5.74s2.25-4.12.13-5.7c-1.48-1.08-4.07-1.45-6.47-1.49s-4.83.16-7.19-.09c-5.45-.58-9.47-3.68-9.92-6.88S191.37,220.12,195.15,217.77ZM188.75,235a40.14,40.14,0,0,1,5.49.22c2.83.18,5.74.1,8.49.51s5.5,1.42,6.31,3c1.32,2.58-2.86,5.08-2.82,7.76,0,1.87,2.4,3.65,5.53,4.16a54.83,54.83,0,0,0,6.92.16c2.31.06,4.91.57,5.73,1.81.56.83.18,1.79.43,2.66.89,3.08,8.48,4,10.23,7a.82.82,0,0,1,.1.77c-.29.53-1.39.7-2.35.76-4.51.28-9.87-.14-12.89,1.84l-.6.16a16.54,16.54,0,0,0-6.89,5.52,17,17,0,0,1-2.28,3.35,7.13,7.13,0,0,1-5,1.84,10.23,10.23,0,0,1-5.31-2c-2.06-1.31-4.25-2.82-4.1-4.59.17-2,3.36-3.62,3.64-5.64.33-2.32-4.27-4.39-8.09-3.61-2.29.44-3.87,1.62-5.65,2.58a25.55,25.55,0,0,1-6.81,2.39,19.66,19.66,0,0,1-8.15.18,15.84,15.84,0,0,1-5.3-2.47c-2.16-1.45-4.18-3-5-4.89-1.52-3.49,1.51-7.07,4.88-10.1a85.09,85.09,0,0,1,14.07-10.09A20.93,20.93,0,0,1,188.75,235Zm-88.5,9.18c2-2.5,5.63-4.45,9.32-6.2s7.59-3.43,10.46-5.64c2.43-1.86,4-4.45,2-6.46-.92-.93-2.48-1.58-3.54-2.46-3.3-2.72-.51-6.82,4.5-8.44s11.27-1.27,16.72-.22a57.28,57.28,0,0,1,11.74,3.55c3.35,1.45,6.54,3.27,10.65,3.76,5.1.63,10.21-.93,15.4-1.08,1.38,0,3,.06,3.78.7a2,2,0,0,1,.72,1.47c.33,2.13.65,4.24,1,6.36.21,1.22.37,2.52-.64,3.62s-2.81,1.7-4.53,2.35c-9.76,3.69-17.79,8.9-23,14.93-1.24,1.43-2.39,3-4.61,3.94s-5.92,1-7.38-.35c-1.13-1.05-.61-2.6-1.3-3.82-.9-1.59-2.37-1.44-3.89-1.1-4.08.89-8.06,2.2-12.08,3.37-4.37,1.26-9,2.71-13.52,2.32-4-.33-8.18-1-10.78-2.78C98.2,249.93,98.26,246.73,100.25,244.22ZM67.63,266.65c-8.25-.86-16.61,1.86-24.82.66-2.18-.32-4.64-1.19-5.35-3.28a4.72,4.72,0,0,1,1.81-4.92,16,16,0,0,1,5-2.37c4.3-1.49,8.31-3.5,10.54-7.57a9,9,0,0,1,2.09-2.84c2-1.61,5.73-.56,8.09-.53,6.81.11,13.61.23,20.42.3,4.08,0,6.29,1.14,8.21,3.62a25.46,25.46,0,0,1,2,3.22,11.17,11.17,0,0,0,8.31,6c1.7.19,4,.43,4.22,2.13a2.38,2.38,0,0,1-1.62,2.28,13.24,13.24,0,0,1-2.93.59c-1.74.3-2.93,1.48-4.54,1.83s-3.87-.46-5.42-1.21c-1-.49-2.79-2.07-3.92-2.13a16.73,16.73,0,0,0-8,1.78c-1.81.91-3.49,2.13-5.42,2.69C73.54,267.7,70.55,267,67.63,266.65Zm-.08,21c2.06-2,4.65-3.39,6.51-5.56,2.45-2.88,3.36-6.74,5.79-9.62,2.63-3.13,6-5.9,10.13-4.18,1.67.7,2.91,1.78,4.69,2.34,2.14.67,4.38,1,6.53,1.69a6.11,6.11,0,0,1,1.91.91.67.67,0,0,1,.14.11,6.43,6.43,0,0,1,1.33,1.76c2.23,3.75,4.44,10.9,9.47,11.84,4.17,1.43,8.76-.42,13.14.07,1.76.19,3.52.76,5.26.39,2.49-.52,4.57-2.95,7.09-2.57s3.71,3.14,3.61,5.56-1.15,4.69-1.57,7.08a17.84,17.84,0,0,1-.93,4.49c-.9,1.94-2.88,3.14-4.81,4.1a50.2,50.2,0,0,1-12.6,4.31c-3.8.75-8.23.88-11-1.8a16.21,16.21,0,0,0-2.54-2.5c-2.35-1.41-5.33.08-8.06,0-4.87-.09-8.07-4.89-12-7.75a16.84,16.84,0,0,0-10.78-3.17c-3.2.19-6.27,1.29-9.4,1.93a4.56,4.56,0,0,1-2.83-.05A3.22,3.22,0,0,1,65,295.28C63.94,292.63,65.49,289.6,67.55,287.62ZM64,332.2a41.78,41.78,0,0,1-5.48-.22c-2.84-.17-5.74-.11-8.5-.52s-5.49-1.42-6.3-3c-1.32-2.58,2.86-5.08,2.81-7.76,0-1.88-2.39-3.66-5.53-4.16a51.18,51.18,0,0,0-6.91-.15c-2.32-.06-4.91-.58-5.73-1.83-.56-.83-.18-1.77-.44-2.66-.88-3.06-8.47-4-10.21-7a.77.77,0,0,1-.11-.77c.28-.53,1.4-.71,2.34-.76,4.52-.28,9.88.13,12.89-1.84l.62-.15a16.88,16.88,0,0,0,6.88-5.53,17.21,17.21,0,0,1,2.27-3.35,7.21,7.21,0,0,1,5-1.85,10.38,10.38,0,0,1,5.3,2C55,294,57.18,295.5,57,297.26c-.16,2-3.35,3.63-3.64,5.65-.32,2.32,4.28,4.38,8.09,3.6,2.29-.44,3.88-1.63,5.66-2.57A25.44,25.44,0,0,1,74,301.53a19.78,19.78,0,0,1,8.14-.17,15.74,15.74,0,0,1,5.3,2.46c2.16,1.46,4.18,3,5,4.91,1.52,3.49-1.51,7.07-4.89,10.09a86.31,86.31,0,0,1-14.07,10.1A21,21,0,0,1,64,332.2Zm26.65,12.93c-5.11-.62-10.21.94-15.4,1.09a6.62,6.62,0,0,1-3.79-.71,2.07,2.07,0,0,1-.72-1.47c-.32-2.13-.65-4.24-1-6.36-.21-1.22-.37-2.52.63-3.62s2.81-1.69,4.53-2.35c9.78-3.69,17.8-8.9,23-14.93a12.31,12.31,0,0,1,4.61-3.94c2.23-1,5.91-1,7.38.35,1.12,1.05.61,2.6,1.29,3.82.91,1.59,2.37,1.45,3.89,1.11,4.09-.9,8.08-2.21,12.09-3.37,4.37-1.28,9-2.72,13.52-2.34,4,.35,8.18,1,10.77,2.79,3.09,2.12,3,5.32,1.05,7.83s-5.63,4.43-9.33,6.2-7.58,3.41-10.46,5.63c-2.43,1.86-4,4.45-2,6.46.92.93,2.48,1.59,3.54,2.47,3.29,2.71.51,6.81-4.49,8.44s-11.28,1.26-16.74.21a57.19,57.19,0,0,1-11.73-3.55C98,347.43,94.78,345.62,90.67,345.13Zm25.89,32.66c-10.73,6.28-7,17.8-18,23.92a33.4,33.4,0,0,1-7.86,2.9c-3.67.94-8.24,1.51-11.48.14-2.27-1-3.27-2.68-3.23-4.3s.94-3.19,1.86-4.74l3.82-6.47C83,387.1,84,384.37,81,382.9S72.65,382,71.32,380c-.63-1,.14-2,1.07-2.94,5.27-5,15.27-7.66,22.88-11.57,2.66-1.37,5.13-3,5.94-5,.49-1.21.36-2.48.79-3.71a4.51,4.51,0,0,1,3.77-2.79c3-.45,5.6,1.26,8,2.42,4.67,2.22,11.12,2.75,16.27,4.58,4.41,1.57,10.71,5.16,9.15,10.7-.9,3.16-2.64,4.44-5.88,4.66-2.85.2-5.57-.73-8.44-.79A16.33,16.33,0,0,0,116.56,377.79Zm22.76,24.8c-2.86.46-6.29-.68-7.18-3.44a21.84,21.84,0,0,0-.77-3.24c-1.61-3.2-7.45-2.05-8.88-5.34a4,4,0,0,1,1.35-4.43,9.72,9.72,0,0,1,4.57-1.83c3.67-.69,7.48-.85,11-2.15,5.59-2.06,9.86-6.78,15.39-9,5.09-2,10.78-1.71,16.22-1.07,4.45.53,8.93.89,13.33,1.76s9.29,2,13,4.45a6.08,6.08,0,0,1,1.64,1.43,2.51,2.51,0,0,1,.48,2.07,3.29,3.29,0,0,1-1.56,1.77c-3.46,2.19-8.09,2-12,2.27-5.13.37-11.5,1.25-15.46,4.67-3.29,2.84-5.19,7.43-10.05,7.75-4.54.29-8.49-.49-12.94,1.23C144.71,400.56,142.18,402.14,139.32,402.59Zm21.81,10-.78-.17a27.8,27.8,0,0,1-8.91.38c-2.92-.46-5.54-1.9-5.64-3.64-.1-2,2.95-3.56,6.11-4.35a32.49,32.49,0,0,1,10.82-.75c2.74.27,5.71.86,8.13.07a4.18,4.18,0,0,0,3.1-4.35c0-1.66-.48-3.4.79-4.88,1.71-2,5.88-2.78,9.67-3.13,2.51-.23,5.27-.33,7.41.46a30.24,30.24,0,0,1,3,1.52c4.65,2.27,11.49,1.64,17.56,1.79,7.79.19,15.82,2.09,20.13,5.84s3.72,9.44-2.47,12.17a26.06,26.06,0,0,1-8.82,1.8,38.34,38.34,0,0,1-14.93-2.12c-2.78-1-5.26-2.41-8.4-3a21.72,21.72,0,0,0-14.3,2.64c-3.67,2.2-5.78,5.08-7.84,7.88a5.5,5.5,0,0,1-4.35,2.56,4.29,4.29,0,0,1-3.86-1.95,10.85,10.85,0,0,1-.61-3.17C166.49,416,164.31,413.86,161.13,412.58Zm53,21.75c-4.58,1.32-9.87,1.84-13.94,3.63-1.84.82-3.42,1.94-3.67,3.25-.38,2.08,2.48,3.81,4.52,5.54s3.58,4.18,2.45,6.32c-1.33,2.57-5.78,4.1-9.86,5.38a6.18,6.18,0,0,1-2.12.38,4.73,4.73,0,0,1-1.53-.4,9.71,9.71,0,0,1-5.6-5.67c-.81-2.19-.9-4.43-1.63-6.62-1.34-3.93-4.84-7.61-9.88-10.38a28.46,28.46,0,0,1-4.88-1.36c-2.73-1.32-2.26-3.92-.24-5.62s5.16-2.81,7.71-4.24c3-1.68,5.2-3.77,7.72-5.7a23.16,23.16,0,0,1,9.5-4.57c3.93-.82,8.93-.34,11.31,1.64,1.46,1.21,1.77,2.77,3.08,4,3.4,3.25,12.57,3.79,14.43,7.43C222.89,430.21,218.67,433,214.08,434.33Zm71.82-1a85.09,85.09,0,0,1-14.07,10.09,20.77,20.77,0,0,1-9.4,3.29,41.71,41.71,0,0,1-5.48-.21c-2.84-.19-5.74-.11-8.5-.52s-5.5-1.42-6.31-3c-1.31-2.58,2.87-5.07,2.83-7.76,0-1.87-2.41-3.65-5.54-4.15a52.85,52.85,0,0,0-6.91-.17c-2.32-.05-4.91-.56-5.73-1.81-.56-.83-.18-1.78-.44-2.66-.88-3.07-8.47-4-10.22-7a.85.85,0,0,1-.11-.78c.29-.53,1.4-.7,2.35-.76,4.52-.28,9.88.14,12.89-1.84l.61-.15a16.66,16.66,0,0,0,6.88-5.52,16.41,16.41,0,0,1,2.28-3.35,7.09,7.09,0,0,1,5-1.85,10.3,10.3,0,0,1,5.32,2c2.06,1.31,4.24,2.83,4.09,4.59-.16,2-3.36,3.62-3.63,5.64-.33,2.33,4.26,4.39,8.08,3.62,2.29-.45,3.88-1.63,5.66-2.58a25.43,25.43,0,0,1,6.81-2.4,19.79,19.79,0,0,1,8.14-.18,15.9,15.9,0,0,1,5.31,2.47c2.16,1.45,4.17,3,5,4.89C292.3,426.76,289.28,430.34,285.9,433.37Zm54.58-29.23c-.34,3.58-.89,7.28-2.77,10.36-2.15,3.49-5.8,5.8-9.55,7.49a48.14,48.14,0,0,1-7.2,2.56c-2.21.59-4.68,1-6.71-.05-1-.49-1.75-1.27-2.71-1.76-2.33-1.21-5.13-.55-7.68,0s-5.5.93-7.56-.69c-1.41-1.12-2.06-2.91-3-4.43a14.69,14.69,0,0,0-9.58-6.29,24.8,24.8,0,0,0-11.66.7,20,20,0,0,1-4.8,1,5.1,5.1,0,0,1-4.34-1.87,4.72,4.72,0,0,1-.1-4.69,10.33,10.33,0,0,1,3.31-3.56c2.85-2.07,6.3-3.77,7.77-7,1-2.15.9-4.68,1.89-6.84,4.1-8.89,16.34-7.07,24.23-3.41a26.38,26.38,0,0,1,3,1.6,7.23,7.23,0,0,1,2.42,2.14,12.93,12.93,0,0,1,1.1,3.37,8.92,8.92,0,0,0,4.09,5.49c2.53,1.38,5.62,1.1,8.5.86q5.88-.5,11.77-.56C335.14,398.56,341,398.75,340.48,404.14Zm43.07,11c8.26.85,16.61-1.87,24.83-.67,2.18.32,4.63,1.19,5.34,3.29.61,1.75-.37,3.74-1.81,4.91a15.61,15.61,0,0,1-5,2.37c-3.52,1.22-7.09,2.82-9.34,5.76-2.66,3.46-5.45,4.22-9.8,4.33l-17.75.47c-3.25.08-6.74.1-9.39-1.77a10.77,10.77,0,0,1-2.33-2.34c-.81-1.06-1.54-2.22-2.34-3.29a16,16,0,0,0-6.69-4.91c-1.66-.62-6-.12-6.29-2.59a2.39,2.39,0,0,1,1.62-2.28c5.53-2.3,11.53.44,17.16.56,5.17.11,8.41-2.81,13.07-4.11C377.64,414.09,380.64,414.83,383.55,415.15Zm5.11-22.33a39.45,39.45,0,0,1-4.56,1.66c-5.56,1.95-9.41,5.43-10.07,9.17l-.23,1.1a14.63,14.63,0,0,1-6.49,6.49,20.73,20.73,0,0,1-12.12,2c-5.74-.89-9.31-4.47-9.4-7.91a32.32,32.32,0,0,1,.69-4.76,10.25,10.25,0,0,0-.56-4.6,4,4,0,0,0-2.24-2.51c-3.53-1.49-8.76.25-12.39.68-4.37.52-8.77.77-13.17.9a15,15,0,0,1-5-.43,5.26,5.26,0,0,1-3.56-3.25c-.51-1.71.07-3.89-1.26-5.06-.53-.46-1.28-.66-1.67-1.23-.8-1.15.38-2.63,1.49-3.48,5.73-4.43,12.16-6.42,18.32-9.8,2.19-1.2,4.71-2.4,7-1.56a2.17,2.17,0,0,1,1,.68,4.42,4.42,0,0,1,.54,1.39c1.09,3.32,4.25,2.54,6.79,2.05a29.68,29.68,0,0,1,4.77-1c2.78-.14,5.07,1.16,7,2.34l6.54,4.15c4.13,2.61,9.38,5.46,15.4,4.86a17.78,17.78,0,0,0,8.28-3.17,9.44,9.44,0,0,1,2.65-1.46,4.65,4.65,0,0,1,3.4.17c1.34.83.12,2.12-.67,3.18a4,4,0,0,0,.26,5.2,5.51,5.51,0,0,1,1.15,1.47C391,391.09,390,392.13,388.66,392.82Zm44.91-15.21c-.28.53-1.4.71-2.34.76-4.53.29-9.88-.13-12.9,1.85l-.61.15a16.72,16.72,0,0,0-6.88,5.52,16.69,16.69,0,0,1-2.28,3.35,7.14,7.14,0,0,1-5,1.85,10.33,10.33,0,0,1-5.31-2c-2.06-1.31-4.24-2.83-4.1-4.58.17-2,3.35-3.63,3.64-5.65.32-2.33-4.28-4.39-8.09-3.61-2.29.45-3.88,1.63-5.65,2.57a25.51,25.51,0,0,1-6.82,2.41,19.74,19.74,0,0,1-8.13.17,15.52,15.52,0,0,1-5.31-2.46c-2.16-1.46-4.18-3-5-4.9-1.52-3.49,1.51-7.07,4.88-10.09a86.24,86.24,0,0,1,14.08-10.1,20.8,20.8,0,0,1,9.4-3.29,41.56,41.56,0,0,1,5.47.22c2.84.18,5.74.11,8.5.52s5.49,1.42,6.31,3c1.32,2.58-2.86,5.07-2.82,7.76,0,1.87,2.4,3.65,5.54,4.15a52.71,52.71,0,0,0,6.9.16c2.32.05,4.91.57,5.74,1.82.56.83.17,1.77.44,2.66.87,3.06,8.46,4,10.21,7A.77.77,0,0,1,433.57,377.61ZM456,337.9a6,6,0,0,1,2.11-.38,4.71,4.71,0,0,1,1.54.39,9.78,9.78,0,0,1,5.61,5.67c.79,2.19.89,4.44,1.62,6.63,1.35,3.93,4.85,7.61,9.88,10.38a29.79,29.79,0,0,1,4.89,1.35c2.72,1.33,2.25,3.93.23,5.62s-5.16,2.82-7.71,4.24c-3,1.68-5.2,3.78-7.72,5.71a23.15,23.15,0,0,1-9.5,4.56c-3.93.82-8.93.35-11.32-1.64-1.45-1.21-1.76-2.77-3.08-4-3.39-3.26-12.56-3.79-14.42-7.44-1.44-2.83,2.78-5.64,7.37-7s9.88-1.83,13.95-3.62c1.83-.82,3.42-1.94,3.66-3.26.38-2.07-2.48-3.81-4.52-5.54s-3.58-4.18-2.46-6.32C447.49,340.71,451.93,339.17,456,337.9Z" style="fill:#fff;opacity:0.2"></path><path d="M441.32,413.43c1.91-1.43,3.8-2.87,5.61-4.34a16.45,16.45,0,0,0-2.2.55C442.52,410.41,441.41,411.92,441.32,413.43Z" style="fill:#fff;opacity:0.2"></path><path d="M462.41,253.1q.29-.48.54-1-3.69-3.88-7.8-7.65a13.61,13.61,0,0,1-3.4,8.73c-3.55,4.38-9.34,8.83-5.76,14.17,3.3,5,13.12,8.08,21.8,10.22,5.71,1.41,11.86,2.93,16.81,5.14a109.71,109.71,0,0,0-5.58-10c-3.51-.49-7-.66-10.52-1.42-3.79-.82-8.21-2.86-9.89-6.44a7.3,7.3,0,0,1,.29-6.58C459.87,256.37,461.33,254.87,462.41,253.1Z" style="fill:#fff;opacity:0.1"></path><path d="M93.93,429.2a18.92,18.92,0,0,0-2.49-7.46,9.5,9.5,0,0,0-4.55-4.29c-3.57-1.58-8.06-1.19-11.4-.34a63.67,63.67,0,0,0-7.87,2.61q3.91,2.61,8.08,5.12c1.07-.2,2.06-.41,2.9-.64a4.83,4.83,0,0,1,2-.25,5.31,5.31,0,0,1,3.26,2.26,12.35,12.35,0,0,1,1.54,3.55c.08.24.14.49.21.73q4.22,2.28,8.57,4.42C94,433,94.12,431.11,93.93,429.2Z" style="fill:#fff;opacity:0.1"></path><path d="M492.59,306.07c-.51-2.51-1.13-5-1.85-7.53a17.2,17.2,0,0,1-5.86,3.24,19.36,19.36,0,0,1-9,.72c-3.38-.55-6.61-1.59-10-2.31a52.45,52.45,0,0,0-17.08-1c-5.7.71-11.34,2.48-17.48.9-6.31-1.63-9.84-6.1-16.05-8-6.5-2-13.49-.38-20.18-1.95s-11.4-6.62-9-9.86,9.59-4,13.22-6.65c3.12-2.31,3.12-6,0-9.15a32.38,32.38,0,0,1-3.12-3c-2.78-3.8,2.18-6.82,6.41-9.2,4.44-2.5,8.59-5.53,8.36-9.5-.06-1.56-.83-3.18-.62-4.69.29-2,2.14-3.52,4-5,3.22-2.45,7-4.88,12.68-5.44a27.8,27.8,0,0,1,7.14.29c-3.65-2.48-7.45-4.91-11.44-7.28-1.18-.7-2.38-1.38-3.58-2.07a38.7,38.7,0,0,0-8.75,4.83c-2.24,1.7-4.47,3.72-7.69,3.59-2.68-.09-5.45-1.64-8-3.15-2-1.17-4.26-2.52-5.32-4.53-1.6-3,0-5.66,1-8.17a16.38,16.38,0,0,0,1.08-6.2q-5.13-2.16-10.41-4.16c1.51,2.55,1.8,5.16.34,7.32-2.94,4.36-11.9,5.82-20,7s-16.95,3-19.21,7.54c-1.71,3.46.85,7.72-.11,11.38-1.21,4.51-7.13,6.14-11.65,6.75-6.26.85-13.28-1.05-20-2.08a50.89,50.89,0,0,0-14.54.05c-6,.78-15.16,3.83-18.95.31-2.39-2.23,4.93-3,7.75-4.32,5-2.35,6.22-6.68,4.3-10.85s-6.65-8.15-12.32-11.53c-2.87-1.7-6-3.29-8.18-5.26-5.54-5-1.54-11.36,7.43-11.91,5.76-.34,12.21,1.32,18.13,1.29,8.66,0,14.41-3.6,20-6.67a60.71,60.71,0,0,1,10.85-4.72c-3.27-.63-6.57-1.2-9.87-1.74-4,1.37-8,2.76-11.7,4.36a30.76,30.76,0,0,1-6.67,2.41c-7.51,1.49-18.48-1.34-24.68,1.27-1.68.68-3.2,1.81-5.59,1.45a5.9,5.9,0,0,1-3.85-2.17,18.84,18.84,0,0,1-1.41-2.9,13,13,0,0,0-5.94-5.07c-2.58-1.23-6.14-2.48-6.19-4.16a1.15,1.15,0,0,1,.08-.41c-3.74,0-7.47.07-11.21.18,1.79,2.53,7.23,5.17,9.08,6.51,5.21,3.78,7.66,9.53,8.78,14.83.39,1.73.73,3.53-.51,4.91-2.13,2.33-7.82,2.55-12.76,2.82-14.1.78-26.88,3.81-36.62,8.68-2.75,1.36-5.27,2.89-6.79,4.83-2.61,3.33-2.2,7.77-6.64,10.26-6.06,3.4-17.62,1.59-27.33-.39a21.61,21.61,0,0,1-6.05-1.85c-3.73-2-3-5.15-1-7.21a19,19,0,0,1,6.51-4.08c2.9-1.15,6.38-2,9-3.28,5-2.54,6.39-7.09,3.56-11.39a10.35,10.35,0,0,0-4.11-3.57c-2-.95-4.4-1.46-6.49-2.36a11.33,11.33,0,0,1-6.94-7.7c-.08-.29-.14-.59-.19-.88-2.32.55-4.64,1.11-6.93,1.7.08.76,0,1.48-.52,1.83a2.77,2.77,0,0,1-1.57.19l-4.23-.31q-11.65,3.24-22.8,7.26c.77-.22,1.54-.44,2.34-.64a54.44,54.44,0,0,1,24-.7c8.46,1.83,16.37,6.92,15.92,11.54-.85,9.21-17.25,6.15-17.86,15.95-.14,2.23.19,4.63-.52,6.62-1.05,2.92-4.09,4.3-5.32,7.09-1.46,3.32-.54,7.65.43,11.61,1.06,4.34,2.23,9,.77,12.54a8.27,8.27,0,0,1-5,4.7,45.18,45.18,0,0,1-18.78.83,32.33,32.33,0,0,1-6.08-1.47c-6.17-2.42-6.71-7.32-4.19-10.46s7.19-5.53,8.47-9c1.19-3.28-.8-7.15-4.3-10.55s-8.4-6.38-13.5-9.18c-2-1.13-4.21-2.26-5.43-3.66A5,5,0,0,1,93.2,220c.76-4.3,4.73-7.77,9.16-10.85a72.31,72.31,0,0,1,9.26-5.44A266.61,266.61,0,0,0,83.91,216.9c.62,1.82.94,3.45.61,4.32s-1.39,1.3-2.38,1.62c-4.78,1.48-9.74,2.61-14.58,4a182.1,182.1,0,0,0-27.21,21.94c-2.07,6.23-3.78,12.7-9.76,15.14a15.4,15.4,0,0,1-4.27,1q-3.29,4.44-6.05,9a75.17,75.17,0,0,0,8.16,1.47,22.34,22.34,0,0,0,13-2.72c15.49-8.91,5.34-27.86,21.36-36.48a43.37,43.37,0,0,1,11.95-3.79c5.71-1.1,13-1.5,18.85,1.06,4.06,1.8,6.3,4.67,6.79,7.28s-.48,5-1.44,7.41l-4.08,10c-1.32,3.31-2,7.58,3.35,10.27,5.22,2.59,14,2.39,16.93,5.82,1.38,1.62.48,3.28-.76,4.61-6.94,7.52-22.5,10.61-33.69,16.05-3.9,1.91-7.41,4.27-8.06,7.39-.39,1.89.27,4,0,5.87s-1.92,3.81-5.25,4.08c-4.87.38-9.65-2.66-14-4.78-8.44-4.1-19.23-5.67-28.34-9.2a47,47,0,0,1-13-7.38c-.86,2.24-1.63,4.5-2.32,6.76,1.58.7,3.21,1.37,4.88,2,4.53,1.66,10.11,3.59,10.85,6.35s-4.25,4.21-7.7,5.78c-6.86,3.15-8.38,9.41-3.69,14.94,2.08,2.42,5.23,4.72,6.2,7.22s-.46,4.85-2.94,6.55c-2,1.4-4.52,1.87-6.61,3.09-.71.41-1.45.8-2.18,1.17.43,1.73.92,3.44,1.45,5.16,1.4-.71,2.86-1.39,4.33-2.05,5.48-2.4,11.32-4.65,15.29-7.89,3.36-2.72,5.09-6.71,1.1-10.16-1.84-1.61-4.63-2.84-6.68-4.37-6.35-4.74-3.18-11,4.5-13.08s18.13-.77,27.46,1.52a121.36,121.36,0,0,1,20.54,7c6,2.71,11.88,6,18.81,7.23,8.61,1.57,16.47-.37,25,0,2.26.09,4.89.44,6.47,1.56A4.61,4.61,0,0,1,128.3,332l3.79,10.34c.75,2,1.47,4.11.19,5.76s-4,2.42-6.65,3.27c-14.82,4.85-26.23,12.34-32.7,21.45-1.54,2.18-2.91,4.54-6.24,5.84s-9.39,1-12.27-1.39C72.22,375.45,72.53,373,71,371c-2-2.67-4.38-2.59-6.78-2.22-6.42,1-12.52,2.65-18.73,4.08-6.75,1.56-13.82,3.37-21.45,2.24l-2.51-.42a127.54,127.54,0,0,0,11.94,15.8c9.68-3.19,21.61-4.62,34.14-4a57.55,57.55,0,0,0,9.81.06c2.55-.32,4.76-1.11,7.5-1,4.54.1,8.76,2.45,12.26,4.56l12.19,7.41c7.68,4.65,17.3,9.82,27,9.53a22.55,22.55,0,0,0,12.53-4.19,11.2,11.2,0,0,1,3.86-2,8.26,8.26,0,0,1,5.66.65c2.49,1.48.93,3.44,0,5-1.45,2.5-.62,5.68,2.21,8.41a13,13,0,0,1,2.4,2.49c1,1.67-.32,3.24-2.3,4.21a49.88,49.88,0,0,1-6.93,2.15c-8.49,2.53-13.61,7.71-13.43,13.64V439a15.81,15.81,0,0,1-8.46,9.71c-.61.3-1.27.57-2,.83q9.06,3,18.44,5.58c3.68,0,7.72,1,11.59,1.69,13.87,2.29,26.7-1.14,40.62,1.7,3.7.76,8,2.43,9.92,5.87a6.46,6.46,0,0,1,.71,2q5.68.54,11.38.92c.57-4-2-8.73-8.21-11.76-4.2-2-9.45-3-14.44-3.65a109.68,109.68,0,0,0-17.45-.71c-6,.24-12.09,1-18.25-.53-7.29-1.8-12.41-6.5-13.11-10.65s2.21-7.81,6.21-10.7a28.35,28.35,0,0,1,9.36-4.53c8.4-2.32,20.39-1.29,29.75,2.55,8,3.25,13.73,8.14,21.66,11.41,13.89,5.7,30.79,5.14,46.1,8.83,1.9.45,4,1.08,5,2.12,1.55,1.59-.29,3.19-2.72,3.78s-5.41.62-7.73,1.3c-4.16,1.25-5.24,4.44-3.83,7.44a18.94,18.94,0,0,0,5.15,5.89q4.89-.12,9.76-.36l-3.8-4.11a5,5,0,0,1-1.44-2.12c-.14-.87.51-1.62,1.28-2.26a21.34,21.34,0,0,1,8-4c5.07-1.4,11.21-1.72,17.23-2s12.15-.57,17.25-2,9-4.1,8.77-7.6c-.14-1.9-1.46-4-.5-5.65s3.94-2.46,7.16-2.57a57,57,0,0,1,9.94.91c4.87.74,10.12,1.44,14.09.42,3.76-1,5.58-3.43,9.38-4.42,4.53-1.22,11.58.16,15.27,3a4,4,0,0,1,1.21,1.33,2.66,2.66,0,0,1-.16,1.67c-.61,2.61,1.79,5.78,6,7.83q5.28-2,10.42-4.1a11.1,11.1,0,0,1-5.37-1.5c-2.25-1.46-2.17-3.46-1.09-4.91s2.92-2.6,3.81-4.11a1.94,1.94,0,0,0,.06-2.24c-1-1.46-4.22-2.3-6.85-2.46s-5.18.14-7.84-.25c-6.24-.9-12.4.15-17.54-2.51-3.64-1.88-5.29-4.68-5.26-7.11s1.47-4.59,2.89-6.71q4.71-7,9.42-13.94c2.26-3.36,5.38-7.06,12.12-7.27,6.4-.21,13.7,3,19.81,2.29,4.61-.49,6.95-3,8.09-5.52s1.53-5.34,4-7.41c3.71-3.13,11.77-4,19.35-2.65a52.57,52.57,0,0,1,20,8.09c3.57,2.39,6.62,5.14,7.47,7.93,1.67,5.53-5.62,9.47-13.53,11.6s-17.2,3.35-22.82,7c-6.48,4.2-6.8,10.77-8,16.78a20.61,20.61,0,0,1-3.06,7.8q6.95-3.4,13.55-7.17a27.6,27.6,0,0,1,4.32-8.58c5.79-7.23,16.37-9.08,25.88-12.18a152.28,152.28,0,0,0,20.94-21.06,38.39,38.39,0,0,1-15.89-4.16c-2.22-1.23-4-2.64-6.1-3.94-6.92-4.39-16.74-7.31-26-7.77s-17.71,1.6-22.38,5.41c-2.89,2.35-3.08,5.69-5.78,8.11s-8,1.18-12.61.8a8.58,8.58,0,0,1-3.07-.64c-1.82-.9-1.36-2.37-.44-3.34,7-7.38,26.86-9.15,29.22-17.9.8-3-.66-6.39,1-9.14,1.95-3.27,7.77-4.87,12.85-6.64s10.07-4.31,9.37-8.07c-.8-4.49-9.15-8.39-11.94-12.88-3-4.9,1.09-9.35,6.38-12.46a56,56,0,0,1,25.51-7.22,53.72,53.72,0,0,1,20,2.52c10,3.48,16.05,10.88,13.24,16.19s-13.16,8-17,13.11c-2.5,3.32-2,7.64,1.38,11.54,3.68,4.25,10.27,7.73,16,11.37.5.32,1,.65,1.48,1q1.41-3,2.59-6.1c-3.2-1.73-6.57-3.46-8.49-5.63a6.76,6.76,0,0,1-1.38-7.22c1.55-4.17,5.89-7.49,9.4-11s6.35-7.7,4.61-12.27c-1.14-3-4.17-6.05-3.88-8.89C488.52,308.85,490.25,307.32,492.59,306.07ZM314,245.62c8.2,1,16.8,2.49,24.18,1.53,11.25-1.45,16.15-8.33,16-15.18a10.42,10.42,0,0,1,.34-4.28c2-4.7,13.1-5.67,22.23-3.53,8.37,2,15.88,6.05,19.78,10.72s4.09,9.81.53,13.57c-2.34,2.47-6.11,4.28-9.7,6.12-3.85,2-7.72,5-4.57,8.21,1.85,1.89,5.87,3.41,6.25,5.37.21,1.11-.86,2-2.05,2.7-3.84,2.33-9.27,3.79-15.39,4.1-11.05.59-23.43-2.43-34.58-2-8.54.3-15.82,2.63-20.79,6.06-1.86,1.27-3.47,2.73-6,3.61a13.72,13.72,0,0,1-9.29-.24c-3.3-1.43-4.14-3.94-4-6s.86-4.12-.68-6.2c-2-2.61-8.7-5.3-12.11-6.65-5.29-.32-10.73-.66-15.89-2.07s-10.05-4.16-11-7.17c-1.34-4.42,6-6.94,12.87-8.06A161.24,161.24,0,0,1,314,245.62ZM340.73,321c1,4.33,6,8.58,8.1,12.92,2.22,4.56,1.14,9.18-2.91,12.47-3.33,2.68-9.48,4.5-16,3-9.61-2.18-14.51-8.64-20.94-13.53a6.46,6.46,0,0,1-.93-1.14c-3.39-4.15-5.29-8.51-5.54-12.68-.16-2.94.2-6.23-3.69-8.75a28.07,28.07,0,0,1-3.42-2.12c-2.61-2.35.8-4.73,4.84-5.27s8.89-.15,12.35-1.25c5-1.6,5.33-5.75,3.63-9.41-.84-1.78-2.07-3.61-1.92-5.32.17-2.37,2.93-4.08,5.93-5.4,7.79-3.44,18-5.21,29.05-5.07a58.86,58.86,0,0,1,17,2.38c5.42,1.7,10.28,4.67,11.68,7.91,1.6,3.7-1.53,7-5.94,9s-10,3.33-14.82,5.11a35.1,35.1,0,0,0-12.81,7.73C341.67,314.31,339.88,317.48,340.73,321ZM183,354.28c-2.81-1.91-7.2-2.79-11.17-3.12s-7.89-.28-11.86-1c-9.18-1.53-16.85-7-18.68-12.16s1.33-10,6.76-13.33,12.95-5.42,20.66-7.16c7.19-1.6,15.87-2.86,24-.27,7.93,2.54,13,8.13,21.22,10,5.91,1.33,13.2.7,17.22,3.69,2.36,1.75,2.16,3.95.86,5.56s-3.6,2.83-5.23,4.32c-5.14,4.77-2.54,12.43,6,17.57,3.33,2,7.7,3.92,8.47,6.38.62,2-1.62,3.66-4.54,4.43s-6.83,1.53-9.61,2.42c-3.94,1.22-9.15,4.48-13.29,5.6a43.09,43.09,0,0,1-9.24.94A43.54,43.54,0,0,1,193,375.85a23.62,23.62,0,0,1-7.12-3.24c-3.71-2.87-2.46-6.29-1.14-9.17S187,357.05,183,354.28Zm109-66.2c3.68,2.59,10.61,3.81,12.65,6.79,1.38,2.05-.32,4-2.66,5.18-3.44,1.81-8.3,2.77-13.56,2.67s-10.54-1.14-15.81-1.61a92.46,92.46,0,0,0-16.08.16c-6.61.58-13.45,1.84-16,5.15-3.66,4.63,2,12.16-4.72,15.34-4.72,2.24-13.17.89-19.62-1.5s-12-5.72-18.53-8A71.69,71.69,0,0,0,180.68,309a8.42,8.42,0,0,0-2.11.12c-3.44,1.12-8.58.84-11.36-1.46s-1.59-5.59.26-7.58c2.65-2.85,8-4.47,14-5a93.63,93.63,0,0,1,18.79.72c8.92,1.05,18.55,2.65,25.92.89a22.76,22.76,0,0,0,7.91-3.68,24.77,24.77,0,0,0,8.74-10.23c1.65-3.82,2-8,4.89-11.48,3.49-4.15,11.2-6.94,20.27-6.3s18.87,5.23,20.69,10.37C290.18,279.71,286.64,284.29,292,288.08Zm-64.71,89.08c7.1-1.6,15.63-1.84,21.72-4.27,2.73-1.1,5-2.74,4.91-4.83-.09-3.3-5.39-6.41-9.33-9.41-4.23-3.21-7.33-7.12-6.21-10.44,1.33-4,8.11-5.95,14.4-7.55a9,9,0,0,1,3.35-.37,9.41,9.41,0,0,1,2.66.8,23.55,23.55,0,0,1,11.16,9.75c2.07,3.6,3,7.24,4.95,10.83,3.56,6.48,10.58,12.79,19.81,17.8,2.78.88,6.06,1.51,8.5,2.73,4.95,2.45,5.05,6.56,2.3,9.07s-7.51,4-11.22,6c-4.39,2.37-7.27,5.49-10.76,8.3a27.81,27.81,0,0,1-14.06,6.3c-6.2.87-14.58-.45-19.19-3.9-2.8-2.11-3.85-4.65-6.45-6.83-6.7-5.62-22-7.49-26.28-13.57C214.19,382.82,220.17,378.77,227.27,377.16Zm79-1.27c-6.26,0-13.53-2.23-17.11-5.63a14.88,14.88,0,0,1-3.43-5.44c-1.26-2.95-2.53-5.9-3.79-8.82-1.67-3.95-3.44-8-7.22-11.7a31.31,31.31,0,0,0-17-8.1c-4-.56-8.95-.59-11.35-2.67s.14-4.18,2.17-5.83a14.67,14.67,0,0,0,5.75-9.46c.33-2.39,0-4.95,1.19-7.13,1.87-3.29,7.64-5.38,14.29-5.14s13.86,2.75,17.88,6.27c3.08,2.68,4.23,5.7,5.34,8.62,2.94,7.81,5.85,15.61,8.79,23.42,1.68,4.48,3.46,9.12,8.15,13.27,2,1.77,4.49,3.4,6.41,5.19,2.91,2.71,4.94,4.4,4.81,7.19a7.48,7.48,0,0,1-.5,1.25C318.42,374.22,312.5,375.91,306.23,375.89ZM201.4,231.81c2.18-7.51,14.26-11.56,25.56-14.94,7.67-2.3,15.72-4.62,25.24-4.55s21,3.25,25.58,8.6a7.33,7.33,0,0,1,.32,9.89c-2.25,2.86-6.21,5-10.43,6.95-5.29,2.42-9.81,4.65-16,6.4-4.81,2-5.91,6.34-2.55,10.05a15.47,15.47,0,0,1,2,2.28c1.63,3.11-3.72,4.85-7.55,6.51-5.78,2.51-9,6.68-8.69,11.28.2,2.9,1.7,6,.38,8.63s-7.24,4.25-11.69,2.14c-5.19-2.46-2.78-6.75-6.22-10-1.48-1.39-4-2.51-5-4-1.42-2,.49-3.82,2.14-5.37,3.55-3.26,6.22-7.08,5.46-11.37-1-5.79-8-11.48-15-16.62a12.18,12.18,0,0,1-3.19-2.93A3.51,3.51,0,0,1,201.4,231.81ZM127.72,322c-9.93,1.41-16.71,2.95-27.81,1.08-6-1-12.37-3-15.78-6.23a8.43,8.43,0,0,1-2.91-6.39c0-8.93,11.9-14.73,23.08-19.71l29.52-13.17c9-4,18.64-8.7,18.88-15.87.18-5.56-5.43-11.77-3.55-17,2.17-6.05,14.07-8.67,25.78-7.72,8.51.7,17.78,3.2,23.45,7.5a20.64,20.64,0,0,1,4.7,5c1.35,2,2.3,4.18,1.26,5.94-.74,1.26-2.46,2.18-3.8,3.25-4.9,3.92-4.17,10.26,1.8,15.24,2.06,1.74,4.69,3.33,6.06,5.21,2.64,3.64-.63,7.21-5.8,8.73s-11.84,1.46-18.23,1.41-13.05-.07-18.17,1.5c-4.88,1.48-7.84,4.25-10.58,7-2,2-3.94,4.06-3.78,6.57.13,2.35,2.18,4.86,2,7.17s-2.59,4.28-5.5,5.72c-4.51,2.19-6.39,2.45-12.57,3.51,0,0-1.93.24-2.49.39C132.24,321.43,129.79,321.72,127.72,322Zm67.13,90.82c-.82,1.73-1.21,3.6-2.6,5.14a9.26,9.26,0,0,1-7.61,2.41c-3.57-.33-6.7-2.11-9.41-3.76-3.84-2.33-7.95-5-8.31-7.84-.42-3.23,4.28-5.45,4.05-8.67-.26-3.7-8.53-7.53-14.54-6.71-3.62.46-5.83,2.19-8.43,3.52a33.23,33.23,0,0,1-10.39,3.1,33.66,33.66,0,0,1-13.34-.62,36.1,36.1,0,0,1-9.57-4.57c-4-2.58-7.92-5.35-9.88-8.43-3.69-5.78.06-11.21,4.59-15.7A93.48,93.48,0,0,1,129.11,356c3.8-2.17,8.3-4.3,14.35-4.23a71.21,71.21,0,0,1,9.09,1c4.73.6,9.48.81,14.16,1.77s9.53,2.91,11.41,5.53c3,4.3-3,7.85-2,12.17.69,3,5.2,6.14,10.53,7.3,3.81.82,7.61.69,11.42,1s8.28,1.47,10.07,3.57c1.2,1.39.9,2.88,1.63,4.32,2.5,5,15.31,7.41,19.2,12.34a1.54,1.54,0,0,1,.44,1.26c-.29.82-2.06,1-3.6,1-7.34-.05-16.31-1.32-20.58,1.53l-1,.17C199.73,406.71,196.44,409.54,194.85,412.83ZM339.7,431.62a52.64,52.64,0,0,1-17.54,0c-4.6-.74-9.69-2-13.42-1s-4.23,4-3.6,6.66,1.94,5.51.37,7.75c-2.13,3-8.72,3.82-14.85,4-4.05.09-8.55-.06-12.35-1.57-2-.78-3.61-1.88-5.48-2.78-8.41-4.16-19.47-3.92-29.5-4.84-12.89-1.17-26.76-5.13-35.14-11.63s-9.35-15.61-.08-19.31c3.78-1.48,8.77-2,13.9-1.91A73.37,73.37,0,0,1,247.29,412c4.94,2,9.47,4.47,14.85,5.76,8.61,2.06,17.36.46,22.63-2.66s7.78-7.52,10.21-11.81a6.41,6.41,0,0,1,6.27-3.62,9.73,9.73,0,0,1,7,3.55c1.22,1.7,1.37,3.45,2.09,5.18,1.53,3.63,5.82,7.25,11.51,9.68l1.33.35a46.08,46.08,0,0,1,14.54.39c5,1.06,9.76,3.67,10.51,6.47C349.12,428.51,344.63,430.71,339.7,431.62Zm52.13-66.34c-4.69,3.72-12.18,5.89-18.51,8.7-12.33,5.54-20.43,13.81-22.78,23.26-.64,2.56-.87,5.22-2,7.66a13.81,13.81,0,0,1-5.37,5.81,22.52,22.52,0,0,1-12.93,3.14c-5.31-.23-11.32-2.42-13.43-5.4-3.87-5.49,6.35-9.36,5.25-14.86-.81-4.1-7.81-8.57-5.69-12.13,2.25-3.78,13.27-3.23,16.08-6.85,1.82-2.3-.49-5.52-3.71-8.06s-7.37-4.74-10.24-7.36-6.52-7.16-5.36-9.14c.67-1.1,2.94-1,3.73-.87,7.35,1,12.54,7.33,19.74,7.54a18.09,18.09,0,0,0,7.22-1.47c6.91-2.7,12.68-6.29,20.77-7.95s19.79-.81,26.48,3.81C397.55,355.58,396.49,361.55,391.83,365.28Zm25.46-56.56q-6.3,3.45-12.6,6.87c-1.69.94-3.46,1.94-3.8,3.36-.86,3.51,6.66,6.8,10.76,10.24,3.32,2.76,4.52,6.14,3.16,8.82s-4.42,4.8-7,6c-3.86,1.92-12.62,2.63-18.35,1.15s-11.35-3.91-17.14-4.13c-3.07-.12-6.25.35-9.09-.7-4.31-1.63-3.66-4.92-5.11-7.58s-5.88-5.17-8-7.9c-3-3.84-1.2-7.81,2.73-10.42s9.74-4.08,15.38-5.52,11.43-2.95,15.32-5.57c3.27-2.21,5.13-5.16,9.17-6.93,6.29-2.71,17.59-1.64,24.76,2.35,2.37,1.34,4.36,3.05,4.63,4.72C422.45,305.76,419.79,307.35,417.29,308.72Z" style="fill:#fff;opacity:0.1"></path></g></g><g id="freepik--Clouds--inject-687"><path id="freepik--Cloud--inject-687" d="M150.4,63.76c0-4.9,5.41-8.31,11.53-8.88,5.4-.51,10.43,1.31,12.94,6.35a11.81,11.81,0,0,1,6.82.33,6.18,6.18,0,0,1,4,5.2,6.81,6.81,0,0,1,6,.36,7.8,7.8,0,0,1,3.64,5.22A17.63,17.63,0,0,1,203,73.67a1.87,1.87,0,0,1,1.11.86c.4,1-.77,1.79-1.76,2.09a14.84,14.84,0,0,1-8.63-.1,1.88,1.88,0,0,0-1-.14,2,2,0,0,0-1,.65,9,9,0,0,1-6.95,2.38,11.61,11.61,0,0,1-6.79-3,1.08,1.08,0,0,0-.8-.4,1.14,1.14,0,0,0-.62.38,12.34,12.34,0,0,1-9.06,3.23,17.38,17.38,0,0,1-9.16-3.33,36,36,0,0,1-4.67,2.64,21.41,21.41,0,0,1-5.06,1A12.49,12.49,0,0,1,139,76.25c-1.15,1.08-4.33,1.41-6.88.81-1.67-.4-2.05-1.1-2.05-1.1a14.74,14.74,0,0,1-3.07.91c-3.28.68-9.38,0-6.82-3,.87-1,4.06-1.63,5.42-1.32,1.43-2.8,7.17-5.44,10.46-3.08.13-3.38,3.25-6,7.63-6.7C145.19,62.57,148.72,62.37,150.4,63.76Z" style="fill:#f5f5f5"></path><path id="freepik--cloud--inject-687" d="M52.72,95.09c0-4,4.44-6.82,9.47-7.29,4.43-.42,8.57,1.07,10.62,5.22a9.7,9.7,0,0,1,5.6.26,5.05,5.05,0,0,1,3.26,4.28,5.6,5.6,0,0,1,4.89.29,6.42,6.42,0,0,1,3,4.28,14.75,14.75,0,0,1,6.37,1.09,1.53,1.53,0,0,1,.91.71c.33.78-.63,1.48-1.44,1.72a12.15,12.15,0,0,1-7.09-.08,1.62,1.62,0,0,0-.78-.12,1.68,1.68,0,0,0-.79.54,7.43,7.43,0,0,1-5.7,2,9.54,9.54,0,0,1-5.58-2.49.68.68,0,0,0-1.16,0,10.18,10.18,0,0,1-7.44,2.65,14.33,14.33,0,0,1-7.53-2.74,30.31,30.31,0,0,1-3.83,2.18,17.91,17.91,0,0,1-4.16.81,10.22,10.22,0,0,1-7.95-3c-.94.89-3.55,1.17-5.64.67-1.37-.32-1.69-.91-1.69-.91a12,12,0,0,1-2.52.76c-2.69.56-7.7,0-5.6-2.44.71-.82,3.34-1.34,4.45-1.09C33.55,100,38.27,97.86,41,99.8c.11-2.78,2.67-5,6.27-5.5C48.44,94.11,51.34,94,52.72,95.09Z" style="fill:#f5f5f5"></path></g><g id="freepik--Sun--inject-687"><circle id="freepik--sun--inject-687" cx="87.93" cy="54.8" r="12.74" transform="translate(-12.99 78.23) rotate(-45)" style="fill:#ffbda7"></circle></g><g id="freepik--Bridge--inject-687"><g id="freepik--bridge--inject-687"><path id="freepik--Shadow--inject-687" d="M475.33,267.14c-11.92-16.88-29.43-32.7-52.59-46.45-20.46-12.15-43.66-21.68-68.41-28.62L26.22,381.51c11.87,16.07,28.87,31.12,51,44.28,21.45,12.74,45.9,22.6,72,29.6Z" style="opacity:0.2"></path><path d="M119,320.68h-6.33v24.65a1.58,1.58,0,0,0,.93,1.3,5,5,0,0,0,4.47,0,1.58,1.58,0,0,0,.93-1.3h0Z" style="fill:#e0e0e0"></path><path d="M113.64,319.39a1.36,1.36,0,0,0,0,2.58,5,5,0,0,0,4.47,0,1.36,1.36,0,0,0,0-2.58A4.9,4.9,0,0,0,113.64,319.39Z" style="fill:#e0e0e0"></path><path d="M94.26,335H87.93v24.66a1.56,1.56,0,0,0,.93,1.29,4.9,4.9,0,0,0,4.47,0,1.56,1.56,0,0,0,.93-1.29h0Z" style="fill:#e0e0e0"></path><path d="M88.86,333.69a1.36,1.36,0,0,0,0,2.58,4.9,4.9,0,0,0,4.47,0,1.36,1.36,0,0,0,0-2.58A5,5,0,0,0,88.86,333.69Z" style="fill:#e0e0e0"></path><path d="M317.26,206.23h-6.32v24.66a1.57,1.57,0,0,0,.92,1.29,5,5,0,0,0,4.48,0,1.57,1.57,0,0,0,.92-1.29h0Z" style="fill:#e0e0e0"></path><path d="M311.86,204.94a1.36,1.36,0,0,0,0,2.58,4.92,4.92,0,0,0,4.48,0,1.36,1.36,0,0,0,0-2.58A5,5,0,0,0,311.86,204.94Z" style="fill:#e0e0e0"></path><path d="M292.49,220.54h-6.33v24.65a1.59,1.59,0,0,0,.92,1.3,5,5,0,0,0,4.48,0,1.58,1.58,0,0,0,.93-1.3h0Z" style="fill:#e0e0e0"></path><path d="M287.08,219.24a1.37,1.37,0,0,0,0,2.59,5,5,0,0,0,4.48,0c1.24-.72,1.24-1.87,0-2.59A5,5,0,0,0,287.08,219.24Z" style="fill:#e0e0e0"></path><path d="M267.71,234.84h-6.33V259.5a1.57,1.57,0,0,0,.93,1.29,5,5,0,0,0,4.47,0,1.57,1.57,0,0,0,.93-1.29h0Z" style="fill:#e0e0e0"></path><path d="M262.31,233.55a1.36,1.36,0,0,0,0,2.58,4.9,4.9,0,0,0,4.47,0,1.36,1.36,0,0,0,0-2.58A5,5,0,0,0,262.31,233.55Z" style="fill:#e0e0e0"></path><path d="M242.93,249.15H236.6V273.8a1.58,1.58,0,0,0,.93,1.3,5,5,0,0,0,4.47,0,1.58,1.58,0,0,0,.93-1.3h0Z" style="fill:#e0e0e0"></path><path d="M237.53,247.86a1.36,1.36,0,0,0,0,2.58,5,5,0,0,0,4.47,0,1.36,1.36,0,0,0,0-2.58A4.9,4.9,0,0,0,237.53,247.86Z" style="fill:#e0e0e0"></path><path d="M218.15,263.45h-6.33v24.66a1.56,1.56,0,0,0,.93,1.29,4.9,4.9,0,0,0,4.47,0,1.56,1.56,0,0,0,.93-1.29h0Z" style="fill:#e0e0e0"></path><path d="M212.75,262.16c-1.24.72-1.24,1.87,0,2.59a5,5,0,0,0,4.47,0c1.24-.72,1.24-1.87,0-2.59A5,5,0,0,0,212.75,262.16Z" style="fill:#e0e0e0"></path><path d="M193.37,277.76H187v24.66a1.58,1.58,0,0,0,.93,1.29,5,5,0,0,0,4.48,0,1.59,1.59,0,0,0,.92-1.29h0Z" style="fill:#e0e0e0"></path><path d="M188,276.47a1.36,1.36,0,0,0,0,2.58,4.92,4.92,0,0,0,4.48,0,1.36,1.36,0,0,0,0-2.58A4.92,4.92,0,0,0,188,276.47Z" style="fill:#e0e0e0"></path><path d="M168.59,292.07h-6.32v24.65a1.55,1.55,0,0,0,.92,1.29,4.92,4.92,0,0,0,4.48,0,1.55,1.55,0,0,0,.92-1.29h0Z" style="fill:#e0e0e0"></path><path d="M163.19,290.77a1.37,1.37,0,0,0,0,2.59,5,5,0,0,0,4.48,0,1.37,1.37,0,0,0,0-2.59A5,5,0,0,0,163.19,290.77Z" style="fill:#e0e0e0"></path><path d="M143.82,306.37h-6.33V331a1.58,1.58,0,0,0,.92,1.29,5,5,0,0,0,4.48,0,1.57,1.57,0,0,0,.93-1.29h0Z" style="fill:#e0e0e0"></path><path d="M138.41,305.08a1.36,1.36,0,0,0,0,2.58,4.92,4.92,0,0,0,4.48,0,1.36,1.36,0,0,0,0-2.58A5,5,0,0,0,138.41,305.08Z" style="fill:#e0e0e0"></path><polygon points="336.93 181.67 59.06 342.1 59.06 354.31 61.57 355.76 339.45 195.33 339.45 183.12 336.93 181.67" style="fill:#e0e0e0"></polygon><polygon points="61.57 355.76 339.45 195.33 339.45 183.12 61.57 343.55 61.57 355.76" style="fill:#f5f5f5"></polygon><path d="M340.11,175.58a.75.75,0,0,0-1-.27L227.65,239.64h0l-12.38,7.15h0l-12.37,7.14,0,0-12.34,7.13-.06,0-12.33,7.12-.07,0-12.32,7.11-.08.05-12.3,7.1-.11.06-12.28,7.1-.12.06-12.27,7.09-.12.07L116.17,304a.71.71,0,0,0-.15.08l-12.24,7.07a.75.75,0,0,0-.15.09L91.39,318.3l-.18.1L79,325.46a.59.59,0,0,0-.17.1l-12.21,7.05a.55.55,0,0,0-.21.12L59,337v1.76l7.12-4.11v4a.76.76,0,0,0,.76.76.77.77,0,0,0,.77-.76v-4.88L78.5,327.5v4a.77.77,0,0,0,1.53,0v-4.89l10.86-6.27v4a.76.76,0,0,0,.76.77.77.77,0,0,0,.77-.77v-4.88l10.86-6.27v4a.76.76,0,0,0,.76.76.77.77,0,0,0,.77-.76v-4.88l10.86-6.27v4a.76.76,0,0,0,.76.76.77.77,0,0,0,.77-.76v-4.89l10.86-6.27v4a.76.76,0,0,0,.76.76.77.77,0,0,0,.77-.76V298l10.86-6.27v4a.76.76,0,1,0,1.52,0v-4.88l10.87-6.28v4a.77.77,0,0,0,.76.77.78.78,0,0,0,.77-.77V283.7l10.86-6.27v4a.76.76,0,0,0,1.52,0v-4.89l10.87-6.27v4a.76.76,0,0,0,.76.76.77.77,0,0,0,.77-.76V269.4L190,263.13v4a.76.76,0,0,0,1.52,0v-4.9L202.4,256v4a.76.76,0,1,0,1.52,0v-4.89l10.87-6.27v4a.76.76,0,0,0,1.52,0v-4.89l10.87-6.28v4a.76.76,0,0,0,1.52,0v-4.9l10.87-6.27v4a.76.76,0,0,0,1.52,0v-4.9L252,227.36v4a.76.76,0,1,0,1.52,0v-4.89l10.87-6.27v4a.76.76,0,1,0,1.52,0v-4.9l10.87-6.27v4a.76.76,0,1,0,1.52,0v-4.9l10.87-6.27v4a.76.76,0,1,0,1.52,0V205l10.87-6.28v4a.76.76,0,0,0,1.52,0v-4.91l10.87-6.27v4a.76.76,0,1,0,1.52,0v-4.9l10.87-6.27v4a.76.76,0,0,0,1.52,0v-4.9l12-6.94A.76.76,0,0,0,340.11,175.58Z" style="fill:#263238"></path><path d="M491.78,278.22c-7.26-29.91-30.27-58.72-69-81.73-40.48-24-91.63-37.86-144.4-41.49v24.2L491.78,302.42Z" style="fill:#37474f"></path><path d="M491.78,278.22,278.35,155c52.77,3.63,103.92,17.47,144.4,41.49C461.51,219.5,484.52,248.31,491.78,278.22Z" style="fill:#455a64"></path><path d="M491.78,278.22,278.35,155c52.77,3.63,103.92,17.47,144.4,41.49C461.51,219.5,484.52,248.31,491.78,278.22Z" style="fill:#455a64"></path><polygon points="61.57 350.7 160.9 408.02 438.77 247.59 339.45 190.27 61.57 350.7" style="fill:#455a64"></polygon><polygon points="438.78 247.59 160.89 408.02 146.85 399.92 145.89 399.36 112.8 380.26 110.9 379.16 76.47 359.3 75.53 358.75 61.58 350.7 339.45 190.27 353.39 198.32 354.35 198.87 388.79 218.74 390.67 219.82 423.77 238.92 424.73 239.48 438.78 247.59" style="fill:#455a64"></polygon><polygon points="61.57 350.7 61.57 355.76 160.9 413.08 160.9 408.02 61.57 350.7" style="fill:#37474f"></polygon><path d="M220.88,379.45h-6.33V404.1a1.56,1.56,0,0,0,.93,1.29,4.9,4.9,0,0,0,4.47,0,1.56,1.56,0,0,0,.93-1.29h0Z" style="fill:#e0e0e0"></path><path d="M215.48,378.15c-1.24.72-1.24,1.87,0,2.59a5,5,0,0,0,4.47,0c1.24-.72,1.24-1.87,0-2.59A5,5,0,0,0,215.48,378.15Z" style="fill:#e0e0e0"></path><path d="M196.1,393.75h-6.33v24.66a1.57,1.57,0,0,0,.93,1.29,5,5,0,0,0,4.47,0,1.57,1.57,0,0,0,.93-1.29h0Z" style="fill:#e0e0e0"></path><path d="M190.7,392.46a1.36,1.36,0,0,0,0,2.58,4.9,4.9,0,0,0,4.47,0,1.36,1.36,0,0,0,0-2.58A5,5,0,0,0,190.7,392.46Z" style="fill:#e0e0e0"></path><path d="M419.1,265h-6.33v24.66a1.58,1.58,0,0,0,.93,1.29,5,5,0,0,0,4.48,0,1.59,1.59,0,0,0,.92-1.29h0Z" style="fill:#e0e0e0"></path><path d="M413.7,263.71a1.36,1.36,0,0,0,0,2.58,5,5,0,0,0,4.48,0,1.36,1.36,0,0,0,0-2.58A4.92,4.92,0,0,0,413.7,263.71Z" style="fill:#e0e0e0"></path><path d="M394.33,279.3H388V304a1.57,1.57,0,0,0,.92,1.29,4.92,4.92,0,0,0,4.48,0,1.56,1.56,0,0,0,.93-1.29h0Z" style="fill:#e0e0e0"></path><path d="M388.92,278a1.37,1.37,0,0,0,0,2.59,5,5,0,0,0,4.48,0,1.37,1.37,0,0,0,0-2.59A5,5,0,0,0,388.92,278Z" style="fill:#e0e0e0"></path><path d="M369.55,293.61h-6.33v24.66a1.58,1.58,0,0,0,.93,1.29,5,5,0,0,0,4.47,0,1.58,1.58,0,0,0,.93-1.29h0Z" style="fill:#e0e0e0"></path><path d="M364.15,292.32a1.36,1.36,0,0,0,0,2.58,4.9,4.9,0,0,0,4.47,0,1.36,1.36,0,0,0,0-2.58A4.9,4.9,0,0,0,364.15,292.32Z" style="fill:#e0e0e0"></path><path d="M344.77,307.92h-6.33v24.65a1.56,1.56,0,0,0,.93,1.29,4.9,4.9,0,0,0,4.47,0,1.56,1.56,0,0,0,.93-1.29h0Z" style="fill:#e0e0e0"></path><path d="M339.37,306.62c-1.24.72-1.24,1.87,0,2.59a5,5,0,0,0,4.47,0c1.24-.72,1.24-1.87,0-2.59A5,5,0,0,0,339.37,306.62Z" style="fill:#e0e0e0"></path><path d="M320,322.22h-6.33v24.66a1.57,1.57,0,0,0,.93,1.29,5,5,0,0,0,4.47,0,1.57,1.57,0,0,0,.93-1.29h0Z" style="fill:#e0e0e0"></path><path d="M314.59,320.93a1.36,1.36,0,0,0,0,2.58,4.9,4.9,0,0,0,4.47,0,1.36,1.36,0,0,0,0-2.58A5,5,0,0,0,314.59,320.93Z" style="fill:#e0e0e0"></path><path d="M295.21,336.53h-6.33v24.65a1.58,1.58,0,0,0,.93,1.3,5,5,0,0,0,4.48,0,1.59,1.59,0,0,0,.92-1.3h0Z" style="fill:#e0e0e0"></path><path d="M289.81,335.24a1.36,1.36,0,0,0,0,2.58,5,5,0,0,0,4.48,0,1.36,1.36,0,0,0,0-2.58A4.92,4.92,0,0,0,289.81,335.24Z" style="fill:#e0e0e0"></path><path d="M270.43,350.83h-6.32v24.66a1.55,1.55,0,0,0,.92,1.29,4.92,4.92,0,0,0,4.48,0,1.57,1.57,0,0,0,.92-1.29h0Z" style="fill:#e0e0e0"></path><path d="M265,349.54a1.37,1.37,0,0,0,0,2.59,5,5,0,0,0,4.48,0,1.37,1.37,0,0,0,0-2.59A5,5,0,0,0,265,349.54Z" style="fill:#e0e0e0"></path><path d="M245.66,365.14h-6.33V389.8a1.59,1.59,0,0,0,.92,1.29,5,5,0,0,0,4.48,0,1.58,1.58,0,0,0,.93-1.29h0Z" style="fill:#e0e0e0"></path><path d="M240.25,363.85a1.36,1.36,0,0,0,0,2.58,5,5,0,0,0,4.48,0,1.36,1.36,0,0,0,0-2.58A4.92,4.92,0,0,0,240.25,363.85Z" style="fill:#e0e0e0"></path><polygon points="438.77 240.44 160.9 400.87 160.9 413.08 163.41 414.53 441.29 254.1 441.29 241.89 438.77 240.44" style="fill:#e0e0e0"></polygon><polygon points="163.41 414.53 441.29 254.1 441.29 241.89 163.41 402.32 163.41 414.53" style="fill:#f5f5f5"></polygon><path d="M442,234.35a.77.77,0,0,0-1-.28L329.49,298.4h0l-12.38,7.15h0l-12.37,7.14,0,0-12.35,7.13-.05,0L279.94,327l-.07,0-12.32,7.11-.08,0-12.3,7.1-.11.06-12.28,7.09-.12.07-12.27,7.09-.12.06L218,362.77a.71.71,0,0,0-.15.08l-12.24,7.07a.71.71,0,0,0-.15.08l-12.24,7.07a.81.81,0,0,0-.18.1l-12.21,7.05-.18.11-12.2,7a.72.72,0,0,0-.21.12l-7.42,4.29v1.76l7.12-4.11v4a.76.76,0,1,0,1.52,0v-4.88l10.87-6.28v4a.77.77,0,0,0,.76.77.78.78,0,0,0,.77-.77v-4.88l10.86-6.27v4a.76.76,0,1,0,1.52,0v-4.88L205.12,372v4a.76.76,0,0,0,.76.76.77.77,0,0,0,.77-.76v-4.88l10.86-6.28v4a.76.76,0,1,0,1.52,0v-4.89l10.87-6.27v4a.76.76,0,0,0,.76.77.77.77,0,0,0,.77-.77v-4.88l10.86-6.27v4a.76.76,0,1,0,1.52,0v-4.88l10.87-6.28v4a.76.76,0,0,0,1.52,0v-4.89l10.87-6.27v4a.76.76,0,1,0,1.52,0v-4.89l10.87-6.27v4a.76.76,0,0,0,1.52,0v-4.89l10.87-6.28v4a.76.76,0,1,0,1.52,0V321l10.87-6.27v4a.76.76,0,0,0,1.52,0v-4.89l10.87-6.27v4a.76.76,0,0,0,1.52,0v-4.89L329,300.43v4a.76.76,0,0,0,1.52,0v-4.9l10.87-6.27v4a.76.76,0,1,0,1.52,0V292.4l10.87-6.27v4a.76.76,0,0,0,1.52,0v-4.89L366.19,279v4a.76.76,0,0,0,1.52,0v-4.9l10.87-6.27v4a.76.76,0,1,0,1.52,0v-4.9L391,264.67v4a.76.76,0,1,0,1.52,0v-4.9l10.87-6.28v4a.76.76,0,1,0,1.52,0v-4.9l10.87-6.27v4a.76.76,0,0,0,1.52,0v-4.9l10.87-6.27v4a.76.76,0,0,0,1.52,0v-4.9l12-6.94A.76.76,0,0,0,442,234.35Z" style="fill:#263238"></path><path d="M221.65,443.09,5.83,318.49a89.17,89.17,0,0,0,2.39,25.59c7.26,29.91,30.27,58.72,69,81.73,40.48,24,91.63,37.86,144.4,41.49Z" style="fill:#37474f"></path><path d="M5.83,318.49l215.82,124.6c-52.77-3.63-103.92-17.47-144.4-41.49C38.49,378.59,13.09,348.4,5.83,318.49Z" style="fill:#455a64"></path><path d="M5.83,318.49l215.82,124.6c-52.77-3.63-103.92-17.47-144.4-41.49C38.49,378.59,13.09,348.4,5.83,318.49Z" style="fill:#455a64"></path><path d="M301.75,269l-13.61,7.87,1.88,1.09,13.63-7.86Zm17.94-10.36-13.61,7.87,1.89,1.08,13.62-7.86Zm-35.88,20.72-13.63,7.86,1.89,1.1,13.62-7.87Zm105-60.6L377.88,225l1.87,1.08,10.92-6.3Zm-122.92,71h0l-13.62,7.87,1.88,1.09h0l13.62-7.87Zm71.79-41.44L324,256.13l1.89,1.08,13.61-7.86Zm17.95-10.36L342,245.76l1.88,1.09L357.48,239Zm17.94-10.36-13.62,7.86,1.88,1.09,13.62-7.87ZM212,320.79l-13.62,7.86,1.89,1.09,13.62-7.86Zm-53.84,31.08-13.63,7.87,1.9,1.09L160.08,353Zm-17.94,10.37h0l-13.62,7.86,1.9,1.09,13.61-7.86Zm107.68-62.18h0l-13.61,7.87,1.88,1.09,13.62-7.87ZM122.28,372.6l-11.37,6.56,1.89,1.1,11.37-6.57Zm53.85-31.09-13.62,7.87,1.88,1.09L178,342.6ZM230,310.43l-13.62,7.86,1.89,1.09,13.62-7.86Zm-35.9,20.72L180.44,339l1.9,1.09h0L196,332.24Z" style="fill:#f5f5f5"></path><polygon points="136.38 405.99 137.34 405.44 432.71 234.84 433.67 234.29 432.71 233.74 431.76 234.29 136.38 404.88 135.43 405.43 136.38 405.99" style="fill:#BB86FC"></polygon><polygon points="136.38 405.99 137.34 405.44 432.71 234.84 433.67 234.29 432.71 233.74 431.76 234.29 136.38 404.88 135.43 405.43 136.38 405.99" style="fill:#fff;opacity:0.30000000000000004"></polygon><polygon points="363.31 193.68 362.37 194.22 66.94 364.8 66.94 364.8 65.98 365.34 65.05 364.8 66 364.25 361.42 193.67 362.37 193.13 363.31 193.68" style="fill:#BB86FC"></polygon><polygon points="363.31 193.68 362.37 194.22 66.94 364.8 66.94 364.8 65.98 365.34 65.05 364.8 66 364.25 361.42 193.67 362.37 193.13 363.31 193.68" style="fill:#fff;opacity:0.30000000000000004"></polygon><polygon points="299.92 157.08 362.37 193.13 363.31 193.68 362.37 194.22 361.42 193.67 297.52 156.78 299.92 157.08" style="fill:#BB86FC"></polygon><polygon points="487.69 265.49 433.67 234.29 432.71 233.74 431.76 234.29 432.71 234.84 488.25 266.91 487.69 265.49" style="fill:#BB86FC"></polygon><polygon points="299.92 157.08 362.37 193.13 363.31 193.68 362.37 194.22 361.42 193.67 297.52 156.78 299.92 157.08" style="fill:#fff;opacity:0.30000000000000004"></polygon><polygon points="487.69 265.49 433.67 234.29 432.71 233.74 431.76 234.29 432.71 234.84 488.25 266.91 487.69 265.49" style="fill:#fff;opacity:0.30000000000000004"></polygon><polygon points="11.04 333.62 65.05 364.8 65.98 365.34 66.94 364.8 66 364.25 10.39 332.15 11.04 333.62" style="fill:#BB86FC"></polygon><polygon points="196.19 440.52 136.38 405.99 135.43 405.43 136.38 404.88 137.34 405.44 198.65 440.84 196.19 440.52" style="fill:#BB86FC"></polygon><polygon points="11.04 333.62 65.05 364.8 65.98 365.34 66.94 364.8 66 364.25 10.39 332.15 11.04 333.62" style="fill:#fff;opacity:0.30000000000000004"></polygon><polygon points="196.19 440.52 136.38 405.99 135.43 405.43 136.38 404.88 137.34 405.44 198.65 440.84 196.19 440.52" style="fill:#fff;opacity:0.30000000000000004"></polygon></g></g><g id="freepik--Streetlight--inject-687"><g id="freepik--street-lights--inject-687"><path d="M61.49,350.93a5.53,5.53,0,0,0-5,0,1.52,1.52,0,0,0,0,2.88,5.53,5.53,0,0,0,5,0,1.52,1.52,0,0,0,0-2.88Z" style="fill:#455a64"></path><path d="M62.52,352.37a1.75,1.75,0,0,0-1-1.44,5.53,5.53,0,0,0-5,0,1.75,1.75,0,0,0-1,1.44v.85a1.72,1.72,0,0,0,1,1.43,5.47,5.47,0,0,0,5,0,1.72,1.72,0,0,0,1-1.43Z" style="fill:#263238"></path><path d="M61.49,350.93a5.53,5.53,0,0,0-5,0,1.52,1.52,0,0,0,0,2.88,5.53,5.53,0,0,0,5,0,1.52,1.52,0,0,0,0-2.88Z" style="fill:#455a64"></path><path d="M56.39,326.17a1.3,1.3,0,0,1,.77-1.06,4,4,0,0,1,3.68,0,1.3,1.3,0,0,1,.77,1.06v26a1.3,1.3,0,0,1-.77,1.06,4,4,0,0,1-3.68,0,1.3,1.3,0,0,1-.77-1.06Z" style="fill:#37474f"></path><path d="M60.84,325.11a4,4,0,0,0-3.68,0,1.3,1.3,0,0,0-.77,1.06,1.31,1.31,0,0,0,.77,1.07,4,4,0,0,0,3.68,0,1.31,1.31,0,0,0,.77-1.07A1.3,1.3,0,0,0,60.84,325.11Z" style="fill:#455a64"></path><path d="M59.43,262.93v62.93a.23.23,0,0,1-.12.18.72.72,0,0,1-.61,0,.22.22,0,0,1-.13-.18V262.93a.43.43,0,1,1,.86,0Z" style="fill:#263238"></path><path d="M59.39,276.39h-.78a9.61,9.61,0,0,1,4.89-8.17,10.55,10.55,0,0,1,10.74.12l-.38.67a9.79,9.79,0,0,0-10-.12A8.81,8.81,0,0,0,59.39,276.39Z" style="fill:#263238"></path><path d="M59.39,276.39h-.78a8.81,8.81,0,0,0-4.5-7.5,9.79,9.79,0,0,0-10,.12l-.38-.67a10.55,10.55,0,0,1,10.74-.12A9.61,9.61,0,0,1,59.39,276.39Z" style="fill:#263238"></path><path d="M73.77,271.33l1.92,1.33a5.61,5.61,0,0,0,5.51.35,1.74,1.74,0,0,0,1-1.41c0-.19,0-.9,0-1.08,0-.58-.45-1.15-1.36-1.57l-3-1.39c-1.69-.77-3.91-.92-5-.31a1,1,0,0,0-.57.94v1.06A2.83,2.83,0,0,0,73.77,271.33Z" style="fill:#263238"></path><path d="M72.89,267.25c-1,.6-.65,1.95.88,3l1.92,1.33a5.61,5.61,0,0,0,5.51.35c1.51-.88,1.37-2.22-.33-3l-3-1.39C76.16,266.79,73.94,266.64,72.89,267.25Z" style="fill:#37474f"></path><path d="M72.76,268.17a.64.64,0,0,1,.36-.53,3.33,3.33,0,0,1,1.57-.31,7.59,7.59,0,0,1,3,.65l3,1.39c.69.32,1.09.73,1.1,1.13s-.27.73-.81,1.05a4.42,4.42,0,0,1-2.14.5,5.21,5.21,0,0,1-2.88-.82L74,269.89A2.54,2.54,0,0,1,72.76,268.17Z" style="fill:#e0e0e0"></path><path d="M43.55,271.33l-1.92,1.33a5.61,5.61,0,0,1-5.51.35,1.74,1.74,0,0,1-1-1.41c0-.19,0-.9,0-1.08,0-.58.45-1.15,1.36-1.57l3-1.39c1.69-.77,3.91-.92,5-.31a1,1,0,0,1,.57.94v1.06A2.83,2.83,0,0,1,43.55,271.33Z" style="fill:#263238"></path><path d="M44.43,267.25c1,.6.65,1.95-.88,3l-1.92,1.33a5.61,5.61,0,0,1-5.51.35c-1.51-.88-1.37-2.22.33-3l3-1.39C41.16,266.79,43.38,266.64,44.43,267.25Z" style="fill:#37474f"></path><path d="M44.55,268.17a.61.61,0,0,0-.35-.53,3.33,3.33,0,0,0-1.57-.31,7.59,7.59,0,0,0-3,.65l-3,1.39c-.69.32-1.09.73-1.1,1.13s.27.73.81,1.05a4.4,4.4,0,0,0,2.14.5,5.21,5.21,0,0,0,2.88-.82l1.92-1.34A2.49,2.49,0,0,0,44.55,268.17Z" style="fill:#e0e0e0"></path></g></g><g id="freepik--Bus--inject-687"><path id="freepik--shadow--inject-687" d="M365,228.39c.6-.35.6-.91,0-1.25l-25.26-14.59a2.44,2.44,0,0,0-2.17,0l-64.67,37.34c-2.39,1.38-2.39,3.62,0,5l18.76,10.84a9.57,9.57,0,0,0,8.66,0Z" style="fill:#37474f"></path><g id="freepik--bus--inject-687"><g id="freepik--Cab--inject-687"><g id="freepik--percentage-box--inject-687"><path d="M274.06,223.65l-1.72-1a.4.4,0,0,0-.4,0l-.4.24a.39.39,0,0,0-.17.37v4.12a1.23,1.23,0,0,0,.56,1l1.72,1a.4.4,0,0,0,.4,0l.41-.24a.41.41,0,0,0,.16-.37v-4.12A1.23,1.23,0,0,0,274.06,223.65Z" style="fill:#fafafa"></path><path d="M274.62,224.62v4.12a.41.41,0,0,1-.16.37l-.4.23a.38.38,0,0,0,.15-.35v-4.13a1.16,1.16,0,0,0-.16-.55l.41-.24A1.12,1.12,0,0,1,274.62,224.62Z" style="fill:#e0e0e0"></path><path d="M271.93,228.31l1.72,1c.31.18.56,0,.56-.33v-4.12a1.25,1.25,0,0,0-.56-1l-1.72-1c-.31-.18-.56,0-.56.33v4.12A1.23,1.23,0,0,0,271.93,228.31Z" style="fill:#f5f5f5"></path></g><path d="M274.16,231.74a.14.14,0,0,0,.12-.08.14.14,0,0,0,0-.19l-1.2-.69a.15.15,0,0,1-.07-.12v-4.52a.14.14,0,0,0-.28,0v4.52a.44.44,0,0,0,.21.37l1.2.69Z" style="fill:#263238"></path><path d="M310.69,251.55l-4.85-2.24s.38-4.56,3.58-3.47S310.69,251.55,310.69,251.55Z" style="fill:#BB86FC"></path><g style="opacity:0.5"><path d="M310.69,251.55l-4.85-2.24s.38-4.56,3.58-3.47S310.69,251.55,310.69,251.55Z"></path></g><path d="M308,251l1-2.07-2.48-1.44h0a3,3,0,0,0-3,.27,10.26,10.26,0,0,0-4.44,8.15,3.62,3.62,0,0,0,1.41,3.28h0l0,0h0l2.55,1.47,1.1-2.18A10.61,10.61,0,0,0,308,251Z" style="fill:#263238"></path><path d="M310.61,252.26a10.65,10.65,0,0,1-3.46,7.45h0a6.83,6.83,0,0,1-1,.7c-2.45,1.42-4.44.06-4.44-3a10.7,10.7,0,0,1,2.75-6.75v0a7.38,7.38,0,0,1,1.68-1.38C308.62,247.82,310.61,249.17,310.61,252.26Z" style="fill:#37474f"></path><path d="M306.17,251.09c1.56-.9,2.82,0,2.82,2.1a6.72,6.72,0,0,1-2.82,5.36c-1.56.9-2.83,0-2.83-2.1A6.73,6.73,0,0,1,306.17,251.09Z" style="fill:#455a64"></path><path d="M306.17,252.89c.81-.47,1.47,0,1.47,1.08a3.51,3.51,0,0,1-1.47,2.79c-.81.46-1.47,0-1.47-1.09A3.48,3.48,0,0,1,306.17,252.89Z" style="fill:#e0e0e0"></path><path d="M306.64,252.87a.94.94,0,0,1,.32-.13c.41.11.68.55.68,1.23a3.71,3.71,0,0,1-.83,2.22l-.17.11c-.72.42-1.31,0-1.31-1A3.09,3.09,0,0,1,306.64,252.87Z" style="fill:#f5f5f5"></path><path d="M310.61,252.26a10.65,10.65,0,0,1-3.46,7.45,12.7,12.7,0,0,0,2.82-5.45c.37-1.78.23-4.34-1.3-5s-3.54.71-4.18,1.33a7.38,7.38,0,0,1,1.68-1.38C308.62,247.82,310.61,249.17,310.61,252.26Z" style="fill:#455a64"></path><path d="M295.74,259a.68.68,0,0,0,1,.64l3.31-1.91a2.27,2.27,0,0,1,0-.41,11.74,11.74,0,0,1,5.34-9.23,6.17,6.17,0,0,1,.86-.42h0l.38-.13h0c2.34-.7,4.08.72,4.08,3.62v.44l6.05-3.49V214.79l-7.82,4.52L301,225.13l-4.3,20.13Z" style="fill:#e0e0e0"></path><path d="M295.74,259a.68.68,0,0,0,1,.64l3.31-1.91a2.27,2.27,0,0,1,0-.41,11.74,11.74,0,0,1,5.34-9.23,6.17,6.17,0,0,1,.86-.42h0l.38-.13h0c2.34-.7,4.08.72,4.08,3.62v.44l6.05-3.49V237.93l-20.35,11.75Z" style="fill:#BB86FC"></path><path d="M295.74,259a.68.68,0,0,0,1,.64l3.31-1.91a2.27,2.27,0,0,1,0-.41,11.74,11.74,0,0,1,5.34-9.23,6.17,6.17,0,0,1,.86-.42h0l.38-.13h0c2.34-.7,4.08.72,4.08,3.62v.44l6.05-3.49V237.93l-20.35,11.75Z" style="opacity:0.2"></path><path d="M302.49,241.82a2.28,2.28,0,0,0,1-1.79V227.5c0-.66-.24-1-.54-.79l-.55.41a2.49,2.49,0,0,0-.82,1.31l-3,14.89c-.08.45.17.63.56.4Z" style="fill:#455a64"></path><path d="M303,227.31a1.09,1.09,0,0,1,0,.19V240a1.78,1.78,0,0,1-.78,1.36l-3.05,1.76,2.91-14.62a2.1,2.1,0,0,1,.63-1l.28-.21m.14-.67a.34.34,0,0,0-.17.07l-.55.41a2.49,2.49,0,0,0-.82,1.31l-3,14.89c-.06.32.05.5.25.5a.59.59,0,0,0,.31-.1l3.29-1.9a2.28,2.28,0,0,0,1-1.79V227.5c0-.53-.15-.86-.37-.86Z" style="fill:#37474f"></path><path d="M315.83,218.67v15a.89.89,0,0,1-.4.69l-.53.3-9,5.22c-.23.13-.4,0-.4-.23V225.38a1,1,0,0,1,.36-.74l3-2.33a7.85,7.85,0,0,1,.76-.52L314.5,219l.8-.46.13-.07C315.65,218.31,315.83,218.41,315.83,218.67Z" style="fill:#37474f"></path><polygon points="314.9 233.59 306.39 238.5 306.39 225.45 309.22 223.09 314.9 219.81 314.9 233.59" style="fill:#455a64"></polygon><polygon points="315.83 222.76 315.83 223.85 314.9 224.39 306.39 229.31 305.46 229.84 305.46 228.75 306.39 228.22 314.9 223.3 315.83 222.76" style="fill:#37474f"></polygon><path d="M311.73,246.92v.83c0,.17.12.24.27.15l3.22-1.86a.57.57,0,0,0,.27-.46v-.83c0-.17-.12-.24-.27-.15L312,246.46A.57.57,0,0,0,311.73,246.92Z" style="fill:#fff"></path><path d="M296.68,245.26l-.25-.09c-8.06-2.78-15.94-6.9-22.25-12.7-.34-.31-.52-.49-.55-.52h0l-1,13.69a.73.73,0,0,0,.34.63c6.72,5.74,14.58,10,23.07,13.32a.67.67,0,0,1-.34-.64l1-13.69Z" style="fill:#BB86FC"></path><g style="opacity:0.30000000000000004"><path d="M296.68,245.26l-.25-.09c-8.06-2.78-15.94-6.9-22.25-12.7-.34-.31-.52-.49-.55-.52h0l-1,13.69a.73.73,0,0,0,.34.63c6.72,5.74,14.58,10,23.07,13.32a.67.67,0,0,1-.34-.64l1-13.69Z" style="fill:#fff"></path></g><path d="M273.63,232a53.22,53.22,0,0,0,10.09,7.48,75.64,75.64,0,0,0,13,5.83l4.3-20.14-14.41-8.31L280,213l-2-1.17Z" style="fill:#455a64"></path><g style="opacity:0.1"><path d="M278.53,217.23l-.32-.18h0L275.59,230c-.09.45.16.62.55.4l3.29-1.9a2.28,2.28,0,0,0,1-1.79v-8.34Z" style="fill:#fff"></path><path d="M287.52,222.43l-1.78-1-3.44-2v6.69c0,.4.28.56.62.36l5-2.9,0-.08A1,1,0,0,0,287.52,222.43Z" style="fill:#fff"></path></g><path d="M273.63,232h0s.21.21.55.52c6.31,5.8,14.19,9.92,22.25,12.7l.25.09h0l4.3-20.14-14.41-8.31L280,213l-2-1.17ZM285,238.77a.19.19,0,0,1,0-.08v0s0,0,0,0a.24.24,0,0,1,0-.08l.67-2.8,2.91-11.92a.51.51,0,0,1,.79-.34l9.35,5.4a1,1,0,0,1,.46,1l-2.91,13.71a.6.6,0,0,1-.81.46c-.72-.26-1.7-.64-2.49-1h0c-1.65-.67-3.37-1.43-5-2.22-.83-.41-1.68-.84-2.53-1.31a.82.82,0,0,1-.39-.45.72.72,0,0,1-.07-.25v0S285,238.81,285,238.77Zm-8.23-5c-.63-.51-1.25-1-1.83-1.56l-.09-.09h0a.83.83,0,0,1-.08-.12,1.33,1.33,0,0,1-.21-1l2.9-13.63a.48.48,0,0,1,.73-.35h0l.32.18,7.21,4.18,1.78,1a1,1,0,0,1,.45,1l-2.9,11.89-.66,2.8h0a.51.51,0,0,1-.79.41c-.53-.32-1-.64-1.52-1a58.6,58.6,0,0,1-5.33-3.87h0Z" style="fill:#f5f5f5"></path><path d="M299.08,228l-20.8-12a.82.82,0,0,1-.37-.81l.38-1.88a.38.38,0,0,1,.59-.27l20.8,12a.83.83,0,0,1,.37.82l-.38,1.87A.38.38,0,0,1,299.08,228Z" style="fill:#455a64"></path><path d="M285,238.57a1,1,0,0,0,.45,1,76.61,76.61,0,0,0,10,4.49.6.6,0,0,0,.81-.46l.14-.72c-2-1.47-6.93-5-10.7-7.16l0,0Z" style="fill:#37474f"></path><path d="M274.76,232a.87.87,0,0,0,.17.21,57,57,0,0,0,8.69,6.38.49.49,0,0,0,.77-.33l.68-2.87a66.08,66.08,0,0,0-9.14-4.16Z" style="fill:#37474f"></path><path d="M272.32,245.07s.08,0,.12,0a35.19,35.19,0,0,0,9.94,8.39,34.39,34.39,0,0,0,11.81,4.17c2.65.24,5.88-2.55,5.88-2.55l-.44-.33s-3.07,2.33-4.63,2.33c-1.35,0-6.16-.61-12.68-4.3a29.37,29.37,0,0,1-9.51-8.15A.65.65,0,0,0,272.32,245.07Z" style="fill:#37474f"></path><path d="M272.44,245.11a35.19,35.19,0,0,0,9.94,8.39,34.39,34.39,0,0,0,11.81,4.17c2.65.24,5.88-2.55,5.88-2.55h0v2.67s-3.23,2.79-5.88,2.55a34.39,34.39,0,0,1-11.81-4.17,35.19,35.19,0,0,1-9.94-8.39C271.9,246.86,272.12,244.55,272.44,245.11Z" style="fill:#455a64"></path><path d="M292.56,249.1a1.6,1.6,0,0,0-2,1.47,2.16,2.16,0,0,0,1.6,2.3,1.58,1.58,0,0,0,2-1.47A2.21,2.21,0,0,0,292.56,249.1Z" style="fill:#fff"></path><path d="M275.25,239.19a3.78,3.78,0,0,1,.84,2.83c-.12,1-.67,1.27-1.23.68a4.1,4.1,0,0,1-.85-2.82C274.1,238.91,274.66,238.6,275.25,239.19Z" style="fill:#fff"></path><path d="M288.93,247.82a25.06,25.06,0,0,1-5.38-2.41c-.27-.15-.48,0-.48.28v.39a1.07,1.07,0,0,0,.48.85,25.06,25.06,0,0,0,5.38,2.41.4.4,0,0,0,.54-.41v-.39A.8.8,0,0,0,288.93,247.82Z" style="fill:#37474f"></path><path d="M277.22,241.43v.4a1.35,1.35,0,0,0,.43.92,45.93,45.93,0,0,0,4,3c.26.17.47.06.47-.26v-.39a1.16,1.16,0,0,0-.47-.87,45.93,45.93,0,0,1-4-3C277.41,241,277.22,241.12,277.22,241.43Z" style="fill:#37474f"></path><path d="M288.93,250.58a25.06,25.06,0,0,1-5.38-2.41c-.27-.15-.48,0-.48.28v.39a1.06,1.06,0,0,0,.48.85,25.06,25.06,0,0,0,5.38,2.41.4.4,0,0,0,.54-.41v-.39A.8.8,0,0,0,288.93,250.58Z" style="fill:#37474f"></path><path d="M277.22,244.19v.4a1.35,1.35,0,0,0,.43.92,45.93,45.93,0,0,0,4,3c.26.17.47.06.47-.26v-.39a1.16,1.16,0,0,0-.47-.87,45.93,45.93,0,0,1-4-3C277.41,243.79,277.22,243.88,277.22,244.19Z" style="fill:#37474f"></path><polygon points="277.94 211.81 300.99 225.12 308.92 219.31 316.74 214.79 293.67 201.48 285.86 205.99 277.94 211.81" style="fill:#BB86FC"></polygon><polygon points="277.94 211.81 300.99 225.12 308.92 219.31 316.74 214.79 293.67 201.48 285.86 205.99 277.94 211.81" style="fill:#fff;opacity:0.55"></polygon><g id="freepik--percentage-box--inject-687"><path d="M302.4,239.77l-1.72-1a.4.4,0,0,0-.4,0c-.1.06-.3.19-.41.24a.41.41,0,0,0-.16.37v4.12a1.25,1.25,0,0,0,.56,1l1.72,1a.39.39,0,0,0,.4,0l.4-.24a.37.37,0,0,0,.17-.36v-4.12A1.25,1.25,0,0,0,302.4,239.77Z" style="fill:#fafafa"></path><path d="M303,240.75v4.12a.37.37,0,0,1-.17.36l-.39.24a.44.44,0,0,0,.15-.36V241a1.1,1.1,0,0,0-.17-.56l.41-.24A1.1,1.1,0,0,1,303,240.75Z" style="fill:#e0e0e0"></path><path d="M300.27,244.44l1.72,1c.31.18.56,0,.56-.32V241a1.25,1.25,0,0,0-.56-1l-1.72-1c-.31-.18-.56,0-.56.33v4.12A1.25,1.25,0,0,0,300.27,244.44Z" style="fill:#f5f5f5"></path></g><path d="M298.74,245.12a1.3,1.3,0,0,0-.58,1c0,.37.26.52.58.34a1.3,1.3,0,0,0,.58-1C299.32,245.09,299.06,244.94,298.74,245.12Z" style="fill:#37474f"></path><path d="M300.77,247.06A.39.39,0,0,0,301,247a.4.4,0,0,0,.22-.37v-4.18a.15.15,0,0,0-.15-.14.14.14,0,0,0-.14.14v4.18a.16.16,0,0,1-.07.13.16.16,0,0,1-.14,0l-1.89-1.09a.14.14,0,0,0-.14.24l1.89,1.09A.39.39,0,0,0,300.77,247.06Z" style="fill:#263238"></path></g><path d="M293.67,201.48l43.84-25.3a4.91,4.91,0,0,1,4.89,0l18.17,10.48A4.91,4.91,0,0,1,363,190.9v27.61a4.9,4.9,0,0,1-2.45,4.24l-43.83,25.31V214.78Z" style="fill:#BB86FC"></path><path d="M293.67,201.48l43.84-25.3a4.91,4.91,0,0,1,4.89,0l18.17,10.48A4.91,4.91,0,0,1,363,190.9v27.61a4.9,4.9,0,0,1-2.45,4.24l-43.83,25.31V214.78Z" style="fill:#fff;opacity:0.55"></path><path d="M354.53,226.24,349.68,224s.38-4.56,3.58-3.47S354.53,226.24,354.53,226.24Z" style="fill:#BB86FC"></path><g style="opacity:0.5"><path d="M354.53,226.24,349.68,224s.38-4.56,3.58-3.47S354.53,226.24,354.53,226.24Z"></path></g><path d="M351.86,225.67l1-2.07-2.48-1.44h0a3,3,0,0,0-3,.27,10.26,10.26,0,0,0-4.44,8.15,3.62,3.62,0,0,0,1.41,3.28h0l0,0h0l2.55,1.47,1.1-2.18A10.61,10.61,0,0,0,351.86,225.67Z" style="fill:#263238"></path><path d="M354.45,227A10.65,10.65,0,0,1,351,234.4h0a6.24,6.24,0,0,1-1,.7c-2.45,1.42-4.44.06-4.44-3a10.7,10.7,0,0,1,2.75-6.75v0a7.38,7.38,0,0,1,1.68-1.38C352.46,222.5,354.45,223.86,354.45,227Z" style="fill:#37474f"></path><path d="M350,225.78c1.56-.9,2.82,0,2.82,2.1a6.72,6.72,0,0,1-2.82,5.36c-1.56.9-2.83,0-2.83-2.1A6.73,6.73,0,0,1,350,225.78Z" style="fill:#455a64"></path><path d="M350,227.58c.81-.47,1.47,0,1.47,1.08a3.48,3.48,0,0,1-1.47,2.78c-.81.47-1.47,0-1.47-1.08A3.48,3.48,0,0,1,350,227.58Z" style="fill:#e0e0e0"></path><path d="M350.48,227.56a.94.94,0,0,1,.32-.13c.41.11.68.55.68,1.23a3.71,3.71,0,0,1-.83,2.22l-.17.11c-.72.42-1.31,0-1.31-1A3.09,3.09,0,0,1,350.48,227.56Z" style="fill:#f5f5f5"></path><path d="M354.45,227A10.65,10.65,0,0,1,351,234.4a12.7,12.7,0,0,0,2.82-5.45c.37-1.78.23-4.34-1.3-5s-3.54.71-4.18,1.33a7.38,7.38,0,0,1,1.68-1.38C352.46,222.5,354.45,223.86,354.45,227Z" style="fill:#455a64"></path><path d="M363,191v27.55a4.87,4.87,0,0,1-2.44,4.22l-6.05,3.49v-.44c0-2.9-1.74-4.32-4.08-3.62h0l-.38.13a6.17,6.17,0,0,0-.86.42,11.74,11.74,0,0,0-5.34,9.23,2.37,2.37,0,0,0,0,.41l-27.17,15.69V214.78l43.76-25.25A1.68,1.68,0,0,1,363,191Z" style="fill:#e0e0e0"></path><path d="M316.74,237.93v10.13l27.17-15.69a2.37,2.37,0,0,1,0-.41,11.74,11.74,0,0,1,5.34-9.23,6.17,6.17,0,0,1,.86-.42l.38-.13h0c2.34-.7,4.08.72,4.08,3.62v.44l6.05-3.49a4.87,4.87,0,0,0,2.44-4.22v-7.31Z" style="fill:#BB86FC"></path><path d="M316.74,237.93v10.13l27.17-15.69a2.37,2.37,0,0,1,0-.41,11.74,11.74,0,0,1,5.34-9.23,6.17,6.17,0,0,1,.86-.42l.38-.13h0c2.34-.7,4.08.72,4.08,3.62v.44l6.05-3.49a4.87,4.87,0,0,0,2.44-4.22v-7.31Z" style="opacity:0.2"></path><polygon points="309.44 196.91 326.8 186.88 331.54 189.62 331.54 189.96 314.18 199.98 309.44 197.25 309.44 196.91" style="fill:#BB86FC"></polygon><polygon points="331.54 189.62 314.18 199.64 309.44 196.91 326.8 186.88 331.54 189.62" style="fill:#BB86FC"></polygon><polygon points="331.54 189.62 314.18 199.64 309.44 196.91 326.8 187.01 331.54 189.62" style="fill:#fff;opacity:0.6000000000000001"></polygon><polygon points="331.54 189.62 314.18 199.64 314.18 199.98 331.54 189.96 331.54 189.62" style="opacity:0.15"></polygon><polygon points="314.18 199.64 309.44 196.91 309.44 197.25 314.18 199.98 314.18 199.64" style="fill:#BB86FC"></polygon><polygon points="314.18 199.65 331.54 189.62 336.27 192.36 336.27 193.27 318.91 202.72 314.18 199.99 314.18 199.65" style="fill:#ebebeb"></polygon><polygon points="336.27 192.36 318.91 202.38 314.18 199.65 331.54 189.62 336.27 192.36" style="fill:#BB86FC"></polygon><polygon points="336.27 192.36 318.91 202.38 314.18 199.65 331.54 189.62 336.27 192.36" style="fill:#fff;opacity:0.5"></polygon><polygon points="318.91 202.38 314.18 199.65 314.18 199.99 318.91 202.72 318.91 202.38" style="fill:#BB86FC"></polygon><polygon points="318.91 202.38 314.18 199.65 314.18 199.99 318.91 202.72 318.91 202.38" style="fill:#fff;opacity:0.30000000000000004"></polygon><polygon points="318.91 202.37 336.27 192.35 341 195.09 341 195.43 323.64 205.45 318.91 202.72 318.91 202.37" style="fill:#BB86FC"></polygon><polygon points="341 195.09 323.64 205.11 318.91 202.37 336.27 192.35 341 195.09" style="fill:#BB86FC"></polygon><polygon points="340.76 195.09 323.64 205.11 318.91 202.37 336.27 192.35 340.76 195.09" style="fill:#fff;opacity:0.6000000000000001"></polygon><polygon points="341 195.09 323.64 205.11 323.64 205.45 341 195.43 341 195.09" style="fill:#fff;opacity:0.15"></polygon><polygon points="323.64 205.11 318.91 202.37 318.91 202.72 323.64 205.45 323.64 205.11" style="fill:#BB86FC"></polygon><path d="M319.23,201.23l-3.08-1.78c-.19-.11-.29-.22-.22-.26s.27,0,.46.12l3.09,1.78c.18.11.28.23.21.27S319.42,201.34,319.23,201.23Z" style="fill:#455a64"></path><path d="M320.58,200.45l-3.09-1.78c-.18-.11-.28-.22-.21-.26s.27,0,.46.12l3.09,1.79c.18.1.28.22.21.26S320.77,200.56,320.58,200.45Z" style="fill:#455a64"></path><path d="M321.93,199.67l-3.09-1.78c-.18-.1-.28-.22-.21-.26s.27,0,.46.13l3.08,1.78c.19.1.29.22.22.26S322.12,199.78,321.93,199.67Z" style="fill:#455a64"></path><path d="M323.28,198.89l-3.09-1.78c-.18-.1-.28-.22-.21-.26s.27,0,.45.13l3.09,1.78c.19.1.29.22.22.26S323.47,199,323.28,198.89Z" style="fill:#455a64"></path><path d="M324.63,198.12l-3.09-1.79c-.19-.1-.28-.22-.21-.26s.27,0,.45.13l3.09,1.78c.19.11.28.22.22.26S324.81,198.22,324.63,198.12Z" style="fill:#455a64"></path><path d="M326,197.34l-3.09-1.78c-.19-.11-.28-.23-.22-.27s.28,0,.46.13l3.09,1.78c.19.11.28.22.22.26S326.16,197.44,326,197.34Z" style="fill:#455a64"></path><path d="M327.33,196.56l-3.09-1.78c-.19-.11-.28-.23-.22-.27a.71.71,0,0,1,.46.13l3.09,1.78c.19.11.28.22.21.26S327.51,196.66,327.33,196.56Z" style="fill:#455a64"></path><path d="M328.68,195.78,325.59,194c-.19-.11-.29-.23-.22-.27a.72.72,0,0,1,.46.13l3.09,1.78c.18.11.28.23.21.26S328.86,195.88,328.68,195.78Z" style="fill:#455a64"></path><path d="M330,195l-3.08-1.78c-.19-.11-.29-.23-.22-.27a.72.72,0,0,1,.46.13l3.09,1.78c.18.11.28.23.21.26S330.21,195.11,330,195Z" style="fill:#455a64"></path><path d="M331.37,194.22l-3.09-1.78c-.18-.11-.28-.23-.21-.26a.64.64,0,0,1,.46.12l3.09,1.78c.18.11.28.23.21.26A.64.64,0,0,1,331.37,194.22Z" style="fill:#455a64"></path><path d="M332.72,193.44l-3.09-1.78c-.18-.11-.28-.23-.21-.26a.64.64,0,0,1,.46.12L333,193.3c.19.11.29.23.22.27A.72.72,0,0,1,332.72,193.44Z" style="fill:#455a64"></path><path d="M334.07,192.66,331,190.88c-.18-.11-.28-.22-.21-.26s.27,0,.46.12l3.08,1.78c.19.11.29.23.22.27A.72.72,0,0,1,334.07,192.66Z" style="fill:#455a64"></path><path d="M318,232.41v-15a.89.89,0,0,1,.4-.69l19-11c.22-.12.4,0,.4.24v15a.89.89,0,0,1-.4.69l-19,11C318.17,232.77,318,232.66,318,232.41Z" style="fill:#37474f"></path><polygon points="318.92 217.5 336.87 207.13 336.87 220.91 318.92 231.27 318.92 217.5" style="fill:#455a64"></polygon><polygon points="327.43 211.51 328.36 210.97 328.36 226.89 327.43 227.42 327.43 211.51" style="fill:#37474f"></polygon><polygon points="317.99 221.52 317.99 222.6 337.79 211.17 337.79 210.08 317.99 221.52" style="fill:#37474f"></polygon><path d="M339.92,219.75v-15a.89.89,0,0,1,.4-.69l19-11c.22-.13.4,0,.4.23v15a.9.9,0,0,1-.4.7l-19,11C340.1,220.11,339.92,220,339.92,219.75Z" style="fill:#37474f"></path><polygon points="340.85 204.83 358.8 194.46 358.8 208.24 340.85 218.61 340.85 204.83" style="fill:#455a64"></polygon><polygon points="349.36 198.84 350.29 198.31 350.29 214.23 349.36 214.76 349.36 198.84" style="fill:#37474f"></polygon><polygon points="339.92 208.85 339.92 209.94 359.73 198.5 359.73 197.42 339.92 208.85" style="fill:#37474f"></polygon><path d="M355.57,221.61v.83c0,.17.12.24.27.15l3.22-1.86a.56.56,0,0,0,.26-.46v-.83c0-.17-.11-.24-.26-.15l-3.23,1.86A.59.59,0,0,0,355.57,221.61Z" style="fill:#fff"></path><g style="opacity:0.2"><path d="M334.29,236.46h-.05s0,0,0-.08v-5.13a.09.09,0,0,1,0-.08l7.41-4.28h.09a.1.1,0,0,1,.05.08v5.14a.08.08,0,0,1-.05.07l-7.41,4.28Zm.09-5.17v4.93l7.23-4.18v-4.92Zm7.32.81Z"></path></g><path d="M337.88,233.46l.22-.13v-3.46l-.22.13Zm-1.27.74.22-.14v-3.45l-.22.13Zm-1.28.73.22-.13v-3.46l-.23.13Zm.64-.37.22-.13V231l-.23.13Zm1.27-.73.22-.13v-3.46l-.23.13Zm3.18-5.29V232l.22-.13v-3.45Zm-.63,3.82.22-.13v-3.46l-.22.13Zm-1.28.74.23-.14v-3.45l-.22.13Zm.64-.37.22-.14v-3.45l-.23.13Z" style="opacity:0.30000000000000004"></path></g></g></svg>
