<svg id="visual" viewBox="0 0 900 600" width="900" height="600" xmlns="http://www.w3.org/2000/svg" xmlns:xlink="http://www.w3.org/1999/xlink" version="1.1"><path d="M0 139L82 139L82 163L164 163L164 91L245 91L245 139L327 139L327 115L409 115L409 73L491 73L491 103L573 103L573 73L655 73L655 145L736 145L736 97L818 97L818 109L900 109L900 109L900 0L900 0L818 0L818 0L736 0L736 0L655 0L655 0L573 0L573 0L491 0L491 0L409 0L409 0L327 0L327 0L245 0L245 0L164 0L164 0L82 0L82 0L0 0Z" fill="#fa7268"></path><path d="M0 187L82 187L82 229L164 229L164 187L245 187L245 205L327 205L327 169L409 169L409 145L491 145L491 181L573 181L573 109L655 109L655 187L736 187L736 157L818 157L818 175L900 175L900 211L900 107L900 107L818 107L818 95L736 95L736 143L655 143L655 71L573 71L573 101L491 101L491 71L409 71L409 113L327 113L327 137L245 137L245 89L164 89L164 161L82 161L82 137L0 137Z" fill="#ea5e66"></path><path d="M0 325L82 325L82 355L164 355L164 385L245 385L245 403L327 403L327 439L409 439L409 367L491 367L491 367L573 367L573 319L655 319L655 283L736 283L736 379L818 379L818 331L900 331L900 313L900 209L900 173L818 173L818 155L736 155L736 185L655 185L655 107L573 107L573 179L491 179L491 143L409 143L409 167L327 167L327 203L245 203L245 185L164 185L164 227L82 227L82 185L0 185Z" fill="#d84a64"></path><path d="M0 451L82 451L82 403L164 403L164 493L245 493L245 457L327 457L327 499L409 499L409 439L491 439L491 451L573 451L573 445L655 445L655 367L736 367L736 499L818 499L818 385L900 385L900 415L900 311L900 329L818 329L818 377L736 377L736 281L655 281L655 317L573 317L573 365L491 365L491 365L409 365L409 437L327 437L327 401L245 401L245 383L164 383L164 353L82 353L82 323L0 323Z" fill="#c53762"></path><path d="M0 601L82 601L82 601L164 601L164 601L245 601L245 601L327 601L327 601L409 601L409 601L491 601L491 601L573 601L573 601L655 601L655 601L736 601L736 601L818 601L818 601L900 601L900 601L900 413L900 383L818 383L818 497L736 497L736 365L655 365L655 443L573 443L573 449L491 449L491 437L409 437L409 497L327 497L327 455L245 455L245 491L164 491L164 401L82 401L82 449L0 449Z" fill="#b0235f"></path></svg>