<svg width="179" height="61" viewBox="0 0 179 61" fill="none" xmlns="http://www.w3.org/2000/svg">
<rect width="179" height="61" fill="#F5F5F5"/>
<path d="M44.8165 46.892H47.6125C47.7085 46.892 47.7885 46.928 47.8525 47C47.9165 47.064 47.9485 47.144 47.9485 47.24C47.9485 47.328 47.9165 47.404 47.8525 47.468C47.7885 47.532 47.7085 47.564 47.6125 47.564H44.8165C44.7205 47.564 44.6365 47.532 44.5645 47.468C44.5005 47.396 44.4685 47.316 44.4685 47.228C44.4685 47.132 44.5005 47.052 44.5645 46.988C44.6365 46.924 44.7205 46.892 44.8165 46.892ZM46.0525 45.2C46.1565 45.2 46.2405 45.236 46.3045 45.308C46.3765 45.38 46.4125 45.464 46.4125 45.56V51.584C46.4125 51.808 46.4405 51.976 46.4965 52.088C46.5605 52.2 46.6405 52.276 46.7365 52.316C46.8325 52.348 46.9285 52.364 47.0245 52.364C47.0885 52.364 47.1445 52.356 47.1925 52.34C47.2485 52.316 47.3085 52.304 47.3725 52.304C47.4445 52.304 47.5045 52.332 47.5525 52.388C47.6085 52.444 47.6365 52.516 47.6365 52.604C47.6365 52.716 47.5725 52.812 47.4445 52.892C47.3165 52.964 47.1645 53 46.9885 53C46.9165 53 46.8085 52.996 46.6645 52.988C46.5205 52.972 46.3725 52.928 46.2205 52.856C46.0685 52.776 45.9405 52.64 45.8365 52.448C45.7405 52.256 45.6925 51.98 45.6925 51.62V45.56C45.6925 45.464 45.7245 45.38 45.7885 45.308C45.8605 45.236 45.9485 45.2 46.0525 45.2ZM52.2789 53C52.1669 53 52.0789 52.964 52.0149 52.892C51.9509 52.82 51.9189 52.736 51.9189 52.64V47.264C51.9189 47.168 51.9509 47.084 52.0149 47.012C52.0869 46.94 52.1749 46.904 52.2789 46.904C52.3829 46.904 52.4669 46.94 52.5309 47.012C52.6029 47.084 52.6389 47.168 52.6389 47.264V49.064L52.4589 49.1C52.4829 48.82 52.5509 48.544 52.6629 48.272C52.7829 47.992 52.9429 47.736 53.1429 47.504C53.3429 47.272 53.5789 47.084 53.8509 46.94C54.1309 46.796 54.4429 46.724 54.7869 46.724C54.9309 46.724 55.0709 46.756 55.2069 46.82C55.3429 46.876 55.4109 46.972 55.4109 47.108C55.4109 47.228 55.3789 47.32 55.3149 47.384C55.2509 47.448 55.1749 47.48 55.0869 47.48C55.0149 47.48 54.9349 47.46 54.8469 47.42C54.7669 47.38 54.6589 47.36 54.5229 47.36C54.2989 47.36 54.0749 47.428 53.8509 47.564C53.6269 47.692 53.4229 47.868 53.2389 48.092C53.0549 48.316 52.9069 48.568 52.7949 48.848C52.6909 49.12 52.6389 49.396 52.6389 49.676V52.64C52.6389 52.736 52.6029 52.82 52.5309 52.892C52.4589 52.964 52.3749 53 52.2789 53ZM64.0634 46.868C64.1674 46.868 64.2514 46.904 64.3154 46.976C64.3874 47.048 64.4234 47.136 64.4234 47.24V52.64C64.4234 52.736 64.3874 52.82 64.3154 52.892C64.2434 52.964 64.1594 53 64.0634 53C63.9594 53 63.8714 52.964 63.7994 52.892C63.7354 52.82 63.7034 52.736 63.7034 52.64V51.212L63.9074 51.116C63.9074 51.34 63.8434 51.568 63.7154 51.8C63.5954 52.032 63.4274 52.248 63.2114 52.448C62.9954 52.648 62.7394 52.812 62.4434 52.94C62.1554 53.06 61.8434 53.12 61.5074 53.12C60.9634 53.12 60.4754 52.98 60.0434 52.7C59.6194 52.42 59.2834 52.036 59.0354 51.548C58.7954 51.06 58.6754 50.512 58.6754 49.904C58.6754 49.28 58.7994 48.732 59.0474 48.26C59.2954 47.78 59.6314 47.404 60.0554 47.132C60.4794 46.86 60.9594 46.724 61.4954 46.724C61.8394 46.724 62.1594 46.784 62.4554 46.904C62.7594 47.024 63.0234 47.188 63.2474 47.396C63.4714 47.604 63.6434 47.844 63.7634 48.116C63.8914 48.38 63.9554 48.656 63.9554 48.944L63.7034 48.764V47.24C63.7034 47.136 63.7354 47.048 63.7994 46.976C63.8714 46.904 63.9594 46.868 64.0634 46.868ZM61.5674 52.448C61.9914 52.448 62.3674 52.34 62.6954 52.124C63.0234 51.9 63.2794 51.596 63.4634 51.212C63.6554 50.82 63.7514 50.384 63.7514 49.904C63.7514 49.432 63.6554 49.008 63.4634 48.632C63.2794 48.256 63.0234 47.956 62.6954 47.732C62.3674 47.508 61.9914 47.396 61.5674 47.396C61.1514 47.396 60.7754 47.504 60.4394 47.72C60.1114 47.936 59.8514 48.232 59.6594 48.608C59.4754 48.984 59.3834 49.416 59.3834 49.904C59.3834 50.384 59.4754 50.82 59.6594 51.212C59.8514 51.596 60.1114 51.9 60.4394 52.124C60.7674 52.34 61.1434 52.448 61.5674 52.448ZM68.6681 46.736C68.7321 46.736 68.7961 46.756 68.8601 46.796C68.9241 46.836 68.9721 46.896 69.0041 46.976L71.1041 51.968L70.9481 52.064L73.0961 46.976C73.1601 46.816 73.2761 46.74 73.4441 46.748C73.5241 46.748 73.6001 46.776 73.6721 46.832C73.7441 46.88 73.7801 46.952 73.7801 47.048C73.7801 47.096 73.7721 47.136 73.7561 47.168C73.7481 47.192 73.7401 47.22 73.7321 47.252L71.3801 52.772C71.3161 52.916 71.2081 52.992 71.0561 53C70.9841 53.008 70.9121 52.992 70.8401 52.952C70.7761 52.904 70.7281 52.844 70.6961 52.772L68.3321 47.252C68.3241 47.236 68.3161 47.212 68.3081 47.18C68.3001 47.148 68.2961 47.116 68.2961 47.084C68.2961 46.996 68.3281 46.916 68.3921 46.844C68.4561 46.772 68.5481 46.736 68.6681 46.736ZM80.5171 53.12C79.9011 53.12 79.3571 52.988 78.8851 52.724C78.4131 52.46 78.0451 52.092 77.7811 51.62C77.5171 51.148 77.3851 50.596 77.3851 49.964C77.3851 49.284 77.5171 48.704 77.7811 48.224C78.0531 47.744 78.4011 47.376 78.8251 47.12C79.2571 46.856 79.7131 46.724 80.1931 46.724C80.5451 46.724 80.8851 46.788 81.2131 46.916C81.5491 47.036 81.8451 47.22 82.1011 47.468C82.3651 47.708 82.5731 48.004 82.7251 48.356C82.8851 48.708 82.9731 49.116 82.9891 49.58C82.9811 49.676 82.9411 49.76 82.8691 49.832C82.7971 49.896 82.7131 49.928 82.6171 49.928H77.8051L77.6611 49.28H82.3891L82.2331 49.424V49.184C82.2011 48.808 82.0811 48.488 81.8731 48.224C81.6651 47.96 81.4131 47.76 81.1171 47.624C80.8211 47.488 80.5131 47.42 80.1931 47.42C79.9531 47.42 79.7051 47.468 79.4491 47.564C79.2011 47.66 78.9731 47.812 78.7651 48.02C78.5651 48.22 78.4011 48.48 78.2731 48.8C78.1451 49.112 78.0811 49.484 78.0811 49.916C78.0811 50.388 78.1771 50.816 78.3691 51.2C78.5611 51.584 78.8371 51.888 79.1971 52.112C79.5651 52.336 80.0011 52.448 80.5051 52.448C80.7851 52.448 81.0371 52.408 81.2611 52.328C81.4851 52.248 81.6811 52.144 81.8491 52.016C82.0171 51.88 82.1571 51.74 82.2691 51.596C82.3571 51.524 82.4451 51.488 82.5331 51.488C82.6131 51.488 82.6811 51.52 82.7371 51.584C82.8011 51.648 82.8331 51.72 82.8331 51.8C82.8331 51.896 82.7931 51.98 82.7131 52.052C82.4731 52.34 82.1611 52.592 81.7771 52.808C81.3931 53.016 80.9731 53.12 80.5171 53.12ZM87.9623 52.64C87.9623 52.736 87.9263 52.82 87.8543 52.892C87.7823 52.964 87.6983 53 87.6023 53C87.4983 53 87.4103 52.964 87.3383 52.892C87.2743 52.82 87.2423 52.736 87.2423 52.64V44.48C87.2423 44.384 87.2783 44.3 87.3503 44.228C87.4223 44.156 87.5063 44.12 87.6023 44.12C87.7063 44.12 87.7903 44.156 87.8543 44.228C87.9263 44.3 87.9623 44.384 87.9623 44.48V52.64ZM103.525 46.868C103.629 46.868 103.713 46.904 103.777 46.976C103.849 47.048 103.885 47.136 103.885 47.24V52.64C103.885 52.736 103.849 52.82 103.777 52.892C103.705 52.964 103.621 53 103.525 53C103.421 53 103.333 52.964 103.261 52.892C103.197 52.82 103.165 52.736 103.165 52.64V51.212L103.369 51.116C103.369 51.34 103.305 51.568 103.177 51.8C103.057 52.032 102.889 52.248 102.673 52.448C102.457 52.648 102.201 52.812 101.905 52.94C101.617 53.06 101.305 53.12 100.969 53.12C100.425 53.12 99.9371 52.98 99.5051 52.7C99.0811 52.42 98.7451 52.036 98.4971 51.548C98.2571 51.06 98.1371 50.512 98.1371 49.904C98.1371 49.28 98.2611 48.732 98.5091 48.26C98.7571 47.78 99.0931 47.404 99.5171 47.132C99.9411 46.86 100.421 46.724 100.957 46.724C101.301 46.724 101.621 46.784 101.917 46.904C102.221 47.024 102.485 47.188 102.709 47.396C102.933 47.604 103.105 47.844 103.225 48.116C103.353 48.38 103.417 48.656 103.417 48.944L103.165 48.764V47.24C103.165 47.136 103.197 47.048 103.261 46.976C103.333 46.904 103.421 46.868 103.525 46.868ZM101.029 52.448C101.453 52.448 101.829 52.34 102.157 52.124C102.485 51.9 102.741 51.596 102.925 51.212C103.117 50.82 103.213 50.384 103.213 49.904C103.213 49.432 103.117 49.008 102.925 48.632C102.741 48.256 102.485 47.956 102.157 47.732C101.829 47.508 101.453 47.396 101.029 47.396C100.613 47.396 100.237 47.504 99.9011 47.72C99.5731 47.936 99.3131 48.232 99.1211 48.608C98.9371 48.984 98.8451 49.416 98.8451 49.904C98.8451 50.384 98.9371 50.82 99.1211 51.212C99.3131 51.596 99.5731 51.9 99.9011 52.124C100.229 52.34 100.605 52.448 101.029 52.448ZM108.066 52.028C108.002 51.932 107.97 51.84 107.97 51.752C107.978 51.656 108.03 51.58 108.126 51.524C108.19 51.468 108.262 51.444 108.342 51.452C108.43 51.46 108.51 51.5 108.582 51.572C108.798 51.852 109.058 52.08 109.362 52.256C109.674 52.424 110.042 52.508 110.466 52.508C110.69 52.508 110.91 52.472 111.126 52.4C111.35 52.32 111.534 52.204 111.678 52.052C111.822 51.892 111.894 51.692 111.894 51.452C111.894 51.204 111.822 51.004 111.678 50.852C111.534 50.7 111.346 50.58 111.114 50.492C110.89 50.404 110.65 50.328 110.394 50.264C110.122 50.192 109.858 50.112 109.602 50.024C109.346 49.928 109.118 49.812 108.918 49.676C108.726 49.532 108.57 49.36 108.45 49.16C108.33 48.96 108.27 48.716 108.27 48.428C108.27 48.092 108.362 47.796 108.546 47.54C108.73 47.284 108.978 47.084 109.29 46.94C109.61 46.796 109.97 46.724 110.37 46.724C110.57 46.724 110.786 46.752 111.018 46.808C111.25 46.856 111.478 46.94 111.702 47.06C111.926 47.18 112.126 47.344 112.302 47.552C112.374 47.624 112.41 47.708 112.41 47.804C112.41 47.892 112.37 47.972 112.29 48.044C112.226 48.092 112.15 48.116 112.062 48.116C111.982 48.116 111.914 48.084 111.858 48.02C111.666 47.804 111.438 47.64 111.174 47.528C110.91 47.416 110.626 47.36 110.322 47.36C110.09 47.36 109.87 47.4 109.662 47.48C109.462 47.552 109.294 47.664 109.158 47.816C109.022 47.968 108.954 48.168 108.954 48.416C108.97 48.648 109.05 48.836 109.194 48.98C109.346 49.124 109.542 49.244 109.782 49.34C110.03 49.436 110.306 49.524 110.61 49.604C110.866 49.668 111.11 49.744 111.342 49.832C111.582 49.92 111.79 50.032 111.966 50.168C112.15 50.296 112.294 50.46 112.398 50.66C112.51 50.86 112.566 51.112 112.566 51.416C112.566 51.768 112.466 52.072 112.266 52.328C112.074 52.584 111.814 52.78 111.486 52.916C111.158 53.052 110.794 53.12 110.394 53.12C109.962 53.12 109.542 53.036 109.134 52.868C108.734 52.7 108.378 52.42 108.066 52.028ZM116.331 52.028C116.267 51.932 116.235 51.84 116.235 51.752C116.243 51.656 116.295 51.58 116.391 51.524C116.455 51.468 116.527 51.444 116.607 51.452C116.695 51.46 116.775 51.5 116.847 51.572C117.063 51.852 117.323 52.08 117.627 52.256C117.939 52.424 118.307 52.508 118.731 52.508C118.955 52.508 119.175 52.472 119.391 52.4C119.615 52.32 119.799 52.204 119.943 52.052C120.087 51.892 120.159 51.692 120.159 51.452C120.159 51.204 120.087 51.004 119.943 50.852C119.799 50.7 119.611 50.58 119.379 50.492C119.155 50.404 118.915 50.328 118.659 50.264C118.387 50.192 118.123 50.112 117.867 50.024C117.611 49.928 117.383 49.812 117.183 49.676C116.991 49.532 116.835 49.36 116.715 49.16C116.595 48.96 116.535 48.716 116.535 48.428C116.535 48.092 116.627 47.796 116.811 47.54C116.995 47.284 117.243 47.084 117.555 46.94C117.875 46.796 118.235 46.724 118.635 46.724C118.835 46.724 119.051 46.752 119.283 46.808C119.515 46.856 119.743 46.94 119.967 47.06C120.191 47.18 120.391 47.344 120.567 47.552C120.639 47.624 120.675 47.708 120.675 47.804C120.675 47.892 120.635 47.972 120.555 48.044C120.491 48.092 120.415 48.116 120.327 48.116C120.247 48.116 120.179 48.084 120.123 48.02C119.931 47.804 119.703 47.64 119.439 47.528C119.175 47.416 118.891 47.36 118.587 47.36C118.355 47.36 118.135 47.4 117.927 47.48C117.727 47.552 117.559 47.664 117.423 47.816C117.287 47.968 117.219 48.168 117.219 48.416C117.235 48.648 117.315 48.836 117.459 48.98C117.611 49.124 117.807 49.244 118.047 49.34C118.295 49.436 118.571 49.524 118.875 49.604C119.131 49.668 119.375 49.744 119.607 49.832C119.847 49.92 120.055 50.032 120.231 50.168C120.415 50.296 120.559 50.46 120.663 50.66C120.775 50.86 120.831 51.112 120.831 51.416C120.831 51.768 120.731 52.072 120.531 52.328C120.339 52.584 120.079 52.78 119.751 52.916C119.423 53.052 119.059 53.12 118.659 53.12C118.227 53.12 117.807 53.036 117.399 52.868C116.999 52.7 116.643 52.42 116.331 52.028ZM125.64 52.64C125.64 52.736 125.604 52.82 125.532 52.892C125.46 52.964 125.376 53 125.28 53C125.176 53 125.088 52.964 125.016 52.892C124.952 52.82 124.92 52.736 124.92 52.64V47.12C124.92 47.024 124.952 46.94 125.016 46.868C125.088 46.796 125.176 46.76 125.28 46.76C125.384 46.76 125.468 46.796 125.532 46.868C125.604 46.94 125.64 47.024 125.64 47.12V52.64ZM125.28 45.956C125.112 45.956 124.984 45.92 124.896 45.848C124.816 45.768 124.776 45.656 124.776 45.512V45.392C124.776 45.248 124.82 45.14 124.908 45.068C125.004 44.988 125.132 44.948 125.292 44.948C125.444 44.948 125.56 44.988 125.64 45.068C125.728 45.14 125.772 45.248 125.772 45.392V45.512C125.772 45.656 125.728 45.768 125.64 45.848C125.56 45.92 125.44 45.956 125.28 45.956ZM129.803 52.028C129.739 51.932 129.707 51.84 129.707 51.752C129.715 51.656 129.767 51.58 129.863 51.524C129.927 51.468 129.999 51.444 130.079 51.452C130.167 51.46 130.247 51.5 130.319 51.572C130.535 51.852 130.795 52.08 131.099 52.256C131.411 52.424 131.779 52.508 132.203 52.508C132.427 52.508 132.647 52.472 132.863 52.4C133.087 52.32 133.271 52.204 133.415 52.052C133.559 51.892 133.631 51.692 133.631 51.452C133.631 51.204 133.559 51.004 133.415 50.852C133.271 50.7 133.083 50.58 132.851 50.492C132.627 50.404 132.387 50.328 132.131 50.264C131.859 50.192 131.595 50.112 131.339 50.024C131.083 49.928 130.855 49.812 130.655 49.676C130.463 49.532 130.307 49.36 130.187 49.16C130.067 48.96 130.007 48.716 130.007 48.428C130.007 48.092 130.099 47.796 130.283 47.54C130.467 47.284 130.715 47.084 131.027 46.94C131.347 46.796 131.707 46.724 132.107 46.724C132.307 46.724 132.523 46.752 132.755 46.808C132.987 46.856 133.215 46.94 133.439 47.06C133.663 47.18 133.863 47.344 134.039 47.552C134.111 47.624 134.147 47.708 134.147 47.804C134.147 47.892 134.107 47.972 134.027 48.044C133.963 48.092 133.887 48.116 133.799 48.116C133.719 48.116 133.651 48.084 133.595 48.02C133.403 47.804 133.175 47.64 132.911 47.528C132.647 47.416 132.363 47.36 132.059 47.36C131.827 47.36 131.607 47.4 131.399 47.48C131.199 47.552 131.031 47.664 130.895 47.816C130.759 47.968 130.691 48.168 130.691 48.416C130.707 48.648 130.787 48.836 130.931 48.98C131.083 49.124 131.279 49.244 131.519 49.34C131.767 49.436 132.043 49.524 132.347 49.604C132.603 49.668 132.847 49.744 133.079 49.832C133.319 49.92 133.527 50.032 133.703 50.168C133.887 50.296 134.031 50.46 134.135 50.66C134.247 50.86 134.303 51.112 134.303 51.416C134.303 51.768 134.203 52.072 134.003 52.328C133.811 52.584 133.551 52.78 133.223 52.916C132.895 53.052 132.531 53.12 132.131 53.12C131.699 53.12 131.279 53.036 130.871 52.868C130.471 52.7 130.115 52.42 129.803 52.028ZM138.02 46.892H140.816C140.912 46.892 140.992 46.928 141.056 47C141.12 47.064 141.152 47.144 141.152 47.24C141.152 47.328 141.12 47.404 141.056 47.468C140.992 47.532 140.912 47.564 140.816 47.564H138.02C137.924 47.564 137.84 47.532 137.768 47.468C137.704 47.396 137.672 47.316 137.672 47.228C137.672 47.132 137.704 47.052 137.768 46.988C137.84 46.924 137.924 46.892 138.02 46.892ZM139.256 45.2C139.36 45.2 139.444 45.236 139.508 45.308C139.58 45.38 139.616 45.464 139.616 45.56V51.584C139.616 51.808 139.644 51.976 139.7 52.088C139.764 52.2 139.844 52.276 139.94 52.316C140.036 52.348 140.132 52.364 140.228 52.364C140.292 52.364 140.348 52.356 140.396 52.34C140.452 52.316 140.512 52.304 140.576 52.304C140.648 52.304 140.708 52.332 140.756 52.388C140.812 52.444 140.84 52.516 140.84 52.604C140.84 52.716 140.776 52.812 140.648 52.892C140.52 52.964 140.368 53 140.192 53C140.12 53 140.012 52.996 139.868 52.988C139.724 52.972 139.576 52.928 139.424 52.856C139.272 52.776 139.144 52.64 139.04 52.448C138.944 52.256 138.896 51.98 138.896 51.62V45.56C138.896 45.464 138.928 45.38 138.992 45.308C139.064 45.236 139.152 45.2 139.256 45.2ZM150.15 46.868C150.254 46.868 150.338 46.904 150.402 46.976C150.474 47.048 150.51 47.136 150.51 47.24V52.64C150.51 52.736 150.474 52.82 150.402 52.892C150.33 52.964 150.246 53 150.15 53C150.046 53 149.958 52.964 149.886 52.892C149.822 52.82 149.79 52.736 149.79 52.64V51.212L149.994 51.116C149.994 51.34 149.93 51.568 149.802 51.8C149.682 52.032 149.514 52.248 149.298 52.448C149.082 52.648 148.826 52.812 148.53 52.94C148.242 53.06 147.93 53.12 147.594 53.12C147.05 53.12 146.562 52.98 146.13 52.7C145.706 52.42 145.37 52.036 145.122 51.548C144.882 51.06 144.762 50.512 144.762 49.904C144.762 49.28 144.886 48.732 145.134 48.26C145.382 47.78 145.718 47.404 146.142 47.132C146.566 46.86 147.046 46.724 147.582 46.724C147.926 46.724 148.246 46.784 148.542 46.904C148.846 47.024 149.11 47.188 149.334 47.396C149.558 47.604 149.73 47.844 149.85 48.116C149.978 48.38 150.042 48.656 150.042 48.944L149.79 48.764V47.24C149.79 47.136 149.822 47.048 149.886 46.976C149.958 46.904 150.046 46.868 150.15 46.868ZM147.654 52.448C148.078 52.448 148.454 52.34 148.782 52.124C149.11 51.9 149.366 51.596 149.55 51.212C149.742 50.82 149.838 50.384 149.838 49.904C149.838 49.432 149.742 49.008 149.55 48.632C149.366 48.256 149.11 47.956 148.782 47.732C148.454 47.508 148.078 47.396 147.654 47.396C147.238 47.396 146.862 47.504 146.526 47.72C146.198 47.936 145.938 48.232 145.746 48.608C145.562 48.984 145.47 49.416 145.47 49.904C145.47 50.384 145.562 50.82 145.746 51.212C145.938 51.596 146.198 51.9 146.526 52.124C146.854 52.34 147.23 52.448 147.654 52.448ZM157.932 46.724C158.46 46.724 158.88 46.832 159.192 47.048C159.512 47.256 159.74 47.544 159.876 47.912C160.02 48.272 160.092 48.672 160.092 49.112V52.64C160.092 52.736 160.056 52.82 159.984 52.892C159.912 52.964 159.828 53 159.732 53C159.62 53 159.532 52.964 159.468 52.892C159.404 52.82 159.372 52.736 159.372 52.64V49.148C159.372 48.828 159.32 48.536 159.216 48.272C159.112 48.008 158.94 47.796 158.7 47.636C158.468 47.476 158.16 47.396 157.776 47.396C157.432 47.396 157.104 47.476 156.792 47.636C156.488 47.796 156.24 48.008 156.048 48.272C155.856 48.536 155.76 48.828 155.76 49.148V52.64C155.76 52.736 155.724 52.82 155.652 52.892C155.58 52.964 155.496 53 155.4 53C155.288 53 155.2 52.964 155.136 52.892C155.072 52.82 155.04 52.736 155.04 52.64V47.264C155.04 47.168 155.072 47.084 155.136 47.012C155.208 46.94 155.296 46.904 155.4 46.904C155.504 46.904 155.588 46.94 155.652 47.012C155.724 47.084 155.76 47.168 155.76 47.264V48.272L155.484 48.704C155.5 48.448 155.58 48.204 155.724 47.972C155.876 47.732 156.068 47.52 156.3 47.336C156.532 47.144 156.788 46.996 157.068 46.892C157.356 46.78 157.644 46.724 157.932 46.724ZM164.221 46.892H167.017C167.113 46.892 167.193 46.928 167.257 47C167.321 47.064 167.353 47.144 167.353 47.24C167.353 47.328 167.321 47.404 167.257 47.468C167.193 47.532 167.113 47.564 167.017 47.564H164.221C164.125 47.564 164.041 47.532 163.969 47.468C163.905 47.396 163.873 47.316 163.873 47.228C163.873 47.132 163.905 47.052 163.969 46.988C164.041 46.924 164.125 46.892 164.221 46.892ZM165.457 45.2C165.561 45.2 165.645 45.236 165.709 45.308C165.781 45.38 165.817 45.464 165.817 45.56V51.584C165.817 51.808 165.845 51.976 165.901 52.088C165.965 52.2 166.045 52.276 166.141 52.316C166.237 52.348 166.333 52.364 166.429 52.364C166.493 52.364 166.549 52.356 166.597 52.34C166.653 52.316 166.713 52.304 166.777 52.304C166.849 52.304 166.909 52.332 166.957 52.388C167.013 52.444 167.041 52.516 167.041 52.604C167.041 52.716 166.977 52.812 166.849 52.892C166.721 52.964 166.569 53 166.393 53C166.321 53 166.213 52.996 166.069 52.988C165.925 52.972 165.777 52.928 165.625 52.856C165.473 52.776 165.345 52.64 165.241 52.448C165.145 52.256 165.097 51.98 165.097 51.62V45.56C165.097 45.464 165.129 45.38 165.193 45.308C165.265 45.236 165.353 45.2 165.457 45.2Z" fill="white"/>
<path d="M32.5272 20.72C33.9832 20.72 35.2312 21.04 36.2712 21.68C37.3112 22.304 38.1032 23.264 38.6472 24.56C39.2072 25.856 39.4872 27.512 39.4872 29.528V41H35.3592V30.368C35.3592 28.24 35.0632 26.64 34.4712 25.568C33.8792 24.496 32.7992 23.96 31.2312 23.96C30.3992 23.96 29.5992 24.192 28.8312 24.656C28.0792 25.104 27.4552 25.8 26.9592 26.744C26.4792 27.688 26.2392 28.896 26.2392 30.368V41H22.3512V30.368C22.3512 28.24 21.9832 26.64 21.2472 25.568C20.5112 24.496 19.4792 23.96 18.1512 23.96C17.3032 23.96 16.5032 24.184 15.7512 24.632C15.0152 25.064 14.4152 25.752 13.9512 26.696C13.4872 27.64 13.2552 28.864 13.2552 30.368V41H9.10318V21.296H13.2552V24.32C13.4312 23.824 13.8072 23.296 14.3832 22.736C14.9752 22.176 15.7272 21.704 16.6392 21.32C17.5672 20.92 18.5992 20.72 19.7352 20.72C20.9192 20.72 21.9112 20.96 22.7112 21.44C23.5112 21.92 24.1432 22.512 24.6072 23.216C25.0712 23.904 25.3912 24.568 25.5672 25.208C25.7912 24.52 26.2232 23.832 26.8632 23.144C27.5032 22.44 28.3112 21.864 29.2872 21.416C30.2632 20.952 31.3432 20.72 32.5272 20.72ZM61.1022 41V37.16C60.9742 37.56 60.5982 38.112 59.9742 38.816C59.3662 39.52 58.5262 40.16 57.4542 40.736C56.3982 41.296 55.1502 41.576 53.7102 41.576C51.8862 41.576 50.2302 41.144 48.7422 40.28C47.2702 39.416 46.0942 38.208 45.2142 36.656C44.3502 35.088 43.9182 33.256 43.9182 31.16C43.9182 29.064 44.3502 27.24 45.2142 25.688C46.0942 24.12 47.2702 22.904 48.7422 22.04C50.2302 21.16 51.8862 20.72 53.7102 20.72C55.1342 20.72 56.3662 20.976 57.4062 21.488C58.4622 22 59.3022 22.592 59.9262 23.264C60.5662 23.936 60.9422 24.512 61.0542 24.992V21.296H65.1822V41H61.1022ZM48.0462 31.16C48.0462 32.584 48.3582 33.816 48.9822 34.856C49.6062 35.896 50.4142 36.704 51.4062 37.28C52.4142 37.84 53.4862 38.12 54.6222 38.12C55.8382 38.12 56.9262 37.832 57.8862 37.256C58.8462 36.68 59.6062 35.872 60.1662 34.832C60.7262 33.776 61.0062 32.552 61.0062 31.16C61.0062 29.768 60.7262 28.552 60.1662 27.512C59.6062 26.456 58.8462 25.64 57.8862 25.064C56.9262 24.472 55.8382 24.176 54.6222 24.176C53.4862 24.176 52.4142 24.464 51.4062 25.04C50.4142 25.616 49.6062 26.424 48.9822 27.464C48.3582 28.504 48.0462 29.736 48.0462 31.16ZM81.7782 20.72C83.0742 20.72 84.3302 20.992 85.5462 21.536C86.7782 22.08 87.7862 22.944 88.5702 24.128C89.3702 25.296 89.7702 26.824 89.7702 28.712V41H85.5462V29.528C85.5462 27.576 85.0902 26.16 84.1782 25.28C83.2662 24.384 82.0902 23.936 80.6502 23.936C79.7062 23.936 78.7942 24.208 77.9142 24.752C77.0502 25.28 76.3382 26.016 75.7782 26.96C75.2182 27.888 74.9382 28.944 74.9382 30.128V41H70.7622V21.296H74.9382V24.8C75.0822 24.256 75.4742 23.664 76.1142 23.024C76.7542 22.384 77.5702 21.84 78.5622 21.392C79.5542 20.944 80.6262 20.72 81.7782 20.72ZM95.6869 41V21.296H99.8629V41H95.6869ZM97.8229 14.552C97.0709 14.552 96.4229 14.288 95.8789 13.76C95.3509 13.216 95.0869 12.568 95.0869 11.816C95.0869 11.064 95.3509 10.416 95.8789 9.872C96.4229 9.328 97.0709 9.056 97.8229 9.056C98.3189 9.056 98.7749 9.184 99.1909 9.44C99.6229 9.696 99.9669 10.032 100.223 10.448C100.479 10.848 100.607 11.304 100.607 11.816C100.607 12.568 100.335 13.216 99.7909 13.76C99.2469 14.288 98.5909 14.552 97.8229 14.552ZM106.151 41V7.976H110.375V24.992C110.471 24.496 110.847 23.912 111.503 23.24C112.159 22.568 113.039 21.984 114.143 21.488C115.247 20.976 116.519 20.72 117.959 20.72C119.799 20.72 121.431 21.16 122.855 22.04C124.279 22.904 125.399 24.12 126.215 25.688C127.047 27.24 127.463 29.064 127.463 31.16C127.463 33.256 127.047 35.088 126.215 36.656C125.399 38.208 124.279 39.416 122.855 40.28C121.431 41.144 119.799 41.576 117.959 41.576C116.599 41.576 115.367 41.32 114.263 40.808C113.175 40.296 112.287 39.696 111.599 39.008C110.911 38.32 110.479 37.704 110.303 37.16V41H106.151ZM123.311 31.16C123.311 29.736 123.023 28.504 122.447 27.464C121.871 26.424 121.103 25.616 120.143 25.04C119.199 24.464 118.159 24.176 117.023 24.176C115.791 24.176 114.671 24.472 113.663 25.064C112.655 25.64 111.855 26.456 111.263 27.512C110.671 28.552 110.375 29.768 110.375 31.16C110.375 32.552 110.671 33.776 111.263 34.832C111.855 35.872 112.655 36.68 113.663 37.256C114.671 37.832 115.791 38.12 117.023 38.12C118.159 38.12 119.199 37.84 120.143 37.28C121.103 36.704 121.871 35.896 122.447 34.856C123.023 33.816 123.311 32.584 123.311 31.16ZM135.33 31.232C135.33 33.296 135.77 34.944 136.65 36.176C137.546 37.392 138.914 38 140.754 38C142.61 38 143.978 37.392 144.858 36.176C145.738 34.944 146.178 33.296 146.178 31.232V21.296H150.306V31.808C150.306 33.728 149.93 35.424 149.178 36.896C148.442 38.368 147.362 39.52 145.938 40.352C144.53 41.168 142.802 41.576 140.754 41.576C138.722 41.576 136.994 41.168 135.57 40.352C134.162 39.52 133.082 38.368 132.33 36.896C131.594 35.424 131.226 33.728 131.226 31.808V21.296H135.33V31.232ZM163.232 20.72C164.256 20.72 165.208 20.824 166.088 21.032C166.984 21.24 167.752 21.488 168.392 21.776C169.048 22.064 169.512 22.32 169.784 22.544L168.128 25.184C167.808 24.896 167.232 24.576 166.4 24.224C165.568 23.856 164.64 23.672 163.616 23.672C162.496 23.672 161.544 23.896 160.76 24.344C159.976 24.776 159.584 25.408 159.584 26.24C159.584 27.072 159.984 27.736 160.784 28.232C161.6 28.712 162.688 29.112 164.048 29.432C165.136 29.688 166.152 30.032 167.096 30.464C168.056 30.896 168.832 31.496 169.424 32.264C170.016 33.016 170.312 34.024 170.312 35.288C170.312 36.44 170.072 37.424 169.592 38.24C169.112 39.04 168.464 39.688 167.648 40.184C166.832 40.664 165.92 41.016 164.912 41.24C163.904 41.464 162.88 41.576 161.84 41.576C160.624 41.576 159.528 41.448 158.552 41.192C157.576 40.952 156.752 40.664 156.08 40.328C155.424 39.976 154.944 39.672 154.64 39.416L156.296 36.44C156.712 36.84 157.392 37.264 158.336 37.712C159.296 38.16 160.384 38.384 161.6 38.384C162.944 38.384 164.032 38.104 164.864 37.544C165.696 36.968 166.112 36.224 166.112 35.312C166.112 34.624 165.912 34.072 165.512 33.656C165.112 33.24 164.576 32.904 163.904 32.648C163.232 32.392 162.496 32.168 161.696 31.976C160.928 31.8 160.176 31.568 159.44 31.28C158.72 30.992 158.056 30.624 157.448 30.176C156.856 29.712 156.384 29.152 156.032 28.496C155.68 27.824 155.504 27.04 155.504 26.144C155.504 25.008 155.864 24.04 156.584 23.24C157.304 22.424 158.248 21.8 159.416 21.368C160.584 20.936 161.856 20.72 163.232 20.72Z" fill="white"/>
</svg>
